<?xml version="1.0" encoding="UTF-8"?>
<svg version="1.1" xmlns="http://www.w3.org/2000/svg" width="738" height="234">
<path d="M0 0 C3.25201861 0.00855473 6.50230234 -0.02040683 9.75415039 -0.05200195 C11.849853 -0.05361341 13.94555867 -0.0530375 16.04125977 -0.05004883 C16.99880661 -0.06128281 17.95635345 -0.07251678 18.94291687 -0.08409119 C27.80698663 0.00646217 35.91932826 2.48013854 42.52563477 8.60229492 C47.8933562 15.04902397 50.19887509 22.27689382 50.15844727 30.52416992 C50.15361328 32.2644043 50.15361328 32.2644043 50.14868164 34.03979492 C50.13611328 35.84963867 50.13611328 35.84963867 50.12329102 37.69604492 C50.1187793 38.91807617 50.11426758 40.14010742 50.10961914 41.39916992 C50.09783916 44.41484438 50.08138955 47.4304199 50.06079102 50.44604492 C50.63724365 50.55634033 51.21369629 50.66663574 51.80761719 50.78027344 C66.84339795 53.85404085 78.93836222 63.21232308 87.99829102 75.38354492 C98.06965052 90.83448426 99.91090723 107.86376527 97.63110352 125.83276367 C96.98093195 128.51773143 96.1471642 130.90601936 95.06079102 133.44604492 C94.58512695 134.57139648 94.10946289 135.69674805 93.61938477 136.85620117 C90.01200419 144.88591514 85.39018457 151.29369734 79.06079102 157.44604492 C78.14040039 158.39737305 78.14040039 158.39737305 77.20141602 159.36791992 C65.42934685 170.73752518 49.25288563 174.92644391 33.30297852 174.87963867 C32.23387238 174.88488052 31.16476624 174.89012238 30.06326294 174.89552307 C27.82302716 174.90189476 25.58275771 174.90066999 23.3425293 174.89208984 C19.9368099 174.88354748 16.53275314 174.91246352 13.12719727 174.9440918 C10.93579151 174.94570349 8.74438282 174.94512688 6.55297852 174.94213867 C5.54854706 174.95337265 4.5441156 174.96460663 3.50924683 174.97618103 C-4.34603904 174.8995443 -11.04521109 173.19301927 -17.52514648 168.62182617 C-18.11553711 168.00694336 -18.70592773 167.39206055 -19.31420898 166.75854492 C-20.22299805 165.85555664 -20.22299805 165.85555664 -21.15014648 164.93432617 C-27.28523199 156.40146707 -27.45402709 148.71654371 -27.18920898 138.38354492 C-27.1691019 137.02745167 -27.1508586 135.67132945 -27.13452148 134.31518555 C-27.08768212 131.02472006 -27.0220976 127.73576657 -26.93920898 124.44604492 C-27.95370117 124.34420898 -28.96819336 124.24237305 -30.01342773 124.13745117 C-43.54044901 121.75508026 -55.94922275 111.98683139 -64.05639648 101.27026367 C-74.12627674 86.16544329 -78.5322625 69.24547146 -75.24780273 51.25854492 C-71.66616082 34.3793373 -62.36937286 20.06615417 -47.93920898 10.44604492 C-32.22178685 1.16101975 -17.9211186 -0.07196146 0 0 Z " fill="#ED8680" transform="translate(75.939208984375,-0.446044921875)"/>
<path d="M0 0 C1.03937773 -0.00638882 2.07875545 -0.01277764 3.14962947 -0.01936007 C6.63764902 -0.03463893 10.12453803 -0.01412848 13.61251831 0.00622559 C16.11082333 0.00272533 18.60912613 -0.00293216 21.10742188 -0.0105896 C27.19128875 -0.02337692 33.27471164 -0.01288459 39.35852112 0.00852364 C46.4410563 0.03253205 53.52351499 0.03081944 60.60608183 0.02821773 C73.24045814 0.02452774 85.87467712 0.04535301 98.50900269 0.07946777 C110.77401708 0.11257312 123.03886639 0.1267237 135.30392456 0.1204834 C148.6569122 0.113723 162.00983069 0.11616855 175.36280811 0.1358428 C176.06852457 0.13688229 176.77424104 0.13792177 177.50134286 0.13899276 C178.91879602 0.14108367 180.33624916 0.14319464 181.75370226 0.14532593 C186.69312875 0.15222731 191.63253396 0.1528899 196.57196426 0.15144348 C203.2154703 0.14985549 209.85880522 0.16471906 216.50226974 0.19067001 C218.94564096 0.19785437 221.38903324 0.19990461 223.83241272 0.19655228 C227.15721038 0.1928596 230.48142215 0.20750808 233.80615234 0.22705078 C234.78230409 0.22172286 235.75845583 0.21639493 236.76418793 0.21090555 C237.65186006 0.21996219 238.53953219 0.22901883 239.45410347 0.23834991 C240.22184566 0.23992112 240.98958784 0.24149232 241.78059494 0.24311113 C244.31470989 0.72358248 245.20848439 1.61033666 246.77609253 3.62145996 C247.94312254 10.63817229 246.31808664 18.32204267 245.31515503 25.28942871 C245.16452606 26.36847977 245.01389709 27.44753082 244.85870361 28.5592804 C244.54086001 30.82453352 244.21965382 33.08931716 243.89523315 35.3536377 C243.40119508 38.80824283 242.9199066 42.26445438 242.44015503 45.72106934 C242.12840971 47.93146236 241.81593471 50.14175263 241.50265503 52.35192871 C241.2884642 53.89121284 241.2884642 53.89121284 241.06994629 55.46159363 C239.04863762 69.44142739 239.04863762 69.44142739 235.98287588 72.28431189 C233.4998387 73.78884942 232.2005954 73.99716107 229.32546902 73.99898338 C228.43457244 74.00680663 227.54367587 74.01462987 226.62578243 74.02269018 C225.16387772 74.01265193 225.16387772 74.01265193 223.67243958 74.00241089 C222.11465462 74.00943085 222.11465462 74.00943085 220.52539927 74.01659262 C217.03453486 74.02858872 213.54405968 74.01906719 210.05319214 74.00964355 C207.55503611 74.01370717 205.05688189 74.01904786 202.55873108 74.02557373 C196.47149893 74.03785325 190.38442038 74.03602841 184.29719418 74.02733581 C179.35117664 74.02056479 174.40519022 74.01964001 169.45916939 74.02290726 C168.75563576 74.02336696 168.05210213 74.02382666 167.32724931 74.02430028 C165.89811463 74.02525944 164.46897996 74.02623208 163.0398453 74.02721806 C149.63520429 74.03577515 136.23062482 74.02593251 122.8259939 74.00981696 C111.31836251 73.99641056 99.81082189 73.99874388 88.30319214 74.01257324 C74.94546198 74.02861841 61.58778574 74.03495422 48.23004729 74.02573645 C46.8064315 74.02478078 45.38281571 74.02383767 43.95919991 74.02290726 C43.25871798 74.02244443 42.55823606 74.0219816 41.83652742 74.02150475 C36.89460049 74.01891188 31.9527077 74.02329218 27.01078606 74.03034592 C20.36320932 74.03962549 13.71577796 74.03304359 7.06820869 74.01566315 C4.62321891 74.01168386 2.17821473 74.01285682 -0.26676941 74.01945114 C-3.5937903 74.02759961 -6.92025322 74.01742607 -10.24723816 74.00241089 C-11.71248895 74.01244914 -11.71248895 74.01244914 -13.20734078 74.02269018 C-14.0956296 74.01486694 -14.98391843 74.00704369 -15.8991251 73.99898338 C-16.66740936 73.99849633 -17.43569362 73.99800927 -18.22725922 73.99750745 C-20.80905832 73.51125301 -21.6902118 72.73443172 -23.22390747 70.62145996 C-23.7690252 63.22722422 -22.65269004 55.98941713 -21.64968872 48.66833496 C-21.48397873 47.44994934 -21.31826874 46.23156372 -21.14753723 44.97625732 C-20.7954812 42.4141362 -20.43976846 39.85251516 -20.08059692 37.29138184 C-19.53655744 33.3725402 -19.02175659 29.45050517 -18.5071106 25.52770996 C-18.16060581 23.0326673 -17.81235838 20.53786591 -17.46218872 18.04333496 C-17.31300491 16.87244324 -17.16382111 15.70155151 -17.01011658 14.49517822 C-16.85032822 13.40344299 -16.69053986 12.31170776 -16.52590942 11.18688965 C-16.39489334 10.23030457 -16.26387726 9.27371948 -16.12889099 8.28814697 C-13.32773028 0.03405315 -7.56812383 -0.09749673 0 0 Z " fill="#9EC3DE" transform="translate(490.2239074707031,160.3785400390625)"/>
<path d="M0 0 C3.25201861 0.00855473 6.50230234 -0.02040683 9.75415039 -0.05200195 C11.849853 -0.05361341 13.94555867 -0.0530375 16.04125977 -0.05004883 C16.99880661 -0.06128281 17.95635345 -0.07251678 18.94291687 -0.08409119 C27.80698663 0.00646217 35.91932826 2.48013854 42.52563477 8.60229492 C47.8933562 15.04902397 50.19887509 22.27689382 50.15844727 30.52416992 C50.15361328 32.2644043 50.15361328 32.2644043 50.14868164 34.03979492 C50.13611328 35.84963867 50.13611328 35.84963867 50.12329102 37.69604492 C50.1187793 38.91807617 50.11426758 40.14010742 50.10961914 41.39916992 C50.09783916 44.41484438 50.08138955 47.4304199 50.06079102 50.44604492 C49.38142487 50.43494186 48.70205872 50.42383881 48.00210571 50.41239929 C40.89631367 50.30131218 33.7907705 50.22617305 26.68432617 50.17138672 C24.03643769 50.14632733 21.3886178 50.11227057 18.7409668 50.06884766 C14.92292298 50.00782213 11.10579808 49.9797476 7.28735352 49.95776367 C6.11403473 49.93195724 4.94071594 49.90615082 3.73184204 49.87956238 C-4.84396337 49.87667173 -11.63048151 51.50805787 -18.08480835 57.4070282 C-25.62951974 65.20275027 -26.39148515 73.42060649 -26.45092773 83.82104492 C-26.46887894 84.98611572 -26.48683014 86.15118652 -26.50532532 87.3515625 C-26.55923407 91.04968719 -26.59326252 94.74768423 -26.62670898 98.44604492 C-26.65989911 100.96298969 -26.69439032 103.47991766 -26.73022461 105.99682617 C-26.81494949 112.14645125 -26.88338136 118.29609324 -26.93920898 124.44604492 C-40.89788476 122.68086895 -53.07904489 114.39106932 -62.12670898 103.82104492 C-72.89841422 89.58233334 -77.75414593 73.21817571 -75.93920898 55.44604492 C-73.37539038 38.07850281 -64.84911438 22.98479801 -50.76342773 12.32885742 C-34.42322581 1.43538947 -19.14776055 -0.07688698 0 0 Z " fill="#9DC2DD" transform="translate(75.939208984375,-0.446044921875)"/>
<path d="M0 0 C5.9593016 5.46184712 9.99070169 11.52234964 13 19 C13.3196875 19.78375 13.639375 20.5675 13.96875 21.375 C18.32522911 34.28308626 17.6234896 50.66837146 12 63 C5.28091059 76.31342119 -5.3026331 84.89600856 -19.3046875 89.80859375 C-31.83789892 93.1370107 -45.13817983 91.13251056 -56.625 85.4375 C-68.298992 78.61503714 -76.41997685 68.0238311 -80.45703125 55.203125 C-84.09437997 40.44438631 -82.57444394 24.77691765 -74.78515625 11.62890625 C-66.88963496 0.00158496 -56.85058425 -7.97018469 -43 -11 C-41.9275 -11.2475 -40.855 -11.495 -39.75 -11.75 C-24.6221095 -12.75852603 -12.04148703 -9.24581553 0 0 Z M-51.4375 19.875 C-57.54392698 28.58805103 -58.47946896 37.71553614 -57 48 C-54.69694856 55.44816634 -50.79469909 61.92024547 -44 66 C-37.95163238 68.89357122 -31.15539455 69.10904111 -24.6875 67.3828125 C-17.30656476 64.12482156 -12.55248569 58.03132451 -9.5625 50.6875 C-6.45768966 40.94296538 -7.32755928 32.09678724 -12 23 C-15.7622919 17.32322539 -20.343035 12.88030064 -27 11 C-36.63015414 9.48173246 -45.29311151 12.09614364 -51.4375 19.875 Z " fill="#FDFDFD" transform="translate(552,46)"/>
<path d="M0 0 C11.74054839 11.15914743 16.7600252 23.8325128 17.375 40.0625 C16.76909484 55.89506517 11.25828596 68.06337935 0 79 C-10.28290987 88.16221032 -22.13728868 91.50319078 -35.73046875 91.25 C-49.32403569 90.21058747 -60.82489016 83.91528677 -70 74 C-79.94238068 61.32013784 -83.07730504 47.19464877 -81.3125 31.375 C-79.20959183 17.87790312 -73.05753028 6.30674187 -62.31640625 -2.4375 C-43.01517441 -15.45688066 -17.93312592 -15.37545058 0 0 Z M-50.3125 19.1875 C-57.09183955 27.378647 -57.89642047 35.56774433 -57 46 C-55.80971991 54.12718129 -50.94539153 59.5859841 -45 65 C-39.17055373 68.73964478 -32.74079695 69.0304403 -26 68 C-18.39041843 65.18242702 -13.5547974 60.2056704 -10 53 C-6.66661227 44.67802512 -6.54791853 34.7710089 -9.75 26.375 C-13.07011681 19.40044906 -17.25325231 15.60195975 -24 12 C-34.46174313 8.51275229 -42.95533648 11.53604994 -50.3125 19.1875 Z " fill="#FDFDFD" transform="translate(449,46)"/>
<path d="M0 0 C1.66254318 0.0070546 1.66254318 0.0070546 3.3586731 0.01425171 C6.86737554 0.03544046 10.37451982 0.0919922 13.8828125 0.1484375 C16.26040238 0.16496204 18.63800848 0.17930559 21.015625 0.19140625 C25.35420395 0.22523884 29.69261111 0.26007085 34.03076172 0.33056641 C34.89772675 0.34342682 35.76469177 0.35628723 36.65792847 0.36953735 C38.8961818 0.51612651 40.85771386 0.90225818 43.0078125 1.5234375 C43.13517997 9.17299508 43.22240177 16.82227653 43.2824707 24.47265625 C43.30752699 27.07204406 43.34158142 29.67136203 43.38500977 32.27050781 C43.44604934 36.01905609 43.47411285 39.76666828 43.49609375 43.515625 C43.52190018 44.66707001 43.5477066 45.81851501 43.57429504 47.00485229 C43.57721527 55.51361239 41.89514875 62.26843544 36.04682922 68.66989136 C28.30676759 76.15716239 20.28413119 76.96889253 9.95703125 76.8515625 C8.82127151 76.84968933 7.68551178 76.84781616 6.51533508 76.84588623 C4.12762492 76.83919201 1.73992523 76.8253303 -0.64770508 76.8046875 C-4.31016178 76.77339072 -7.97218811 76.76369813 -11.63476562 76.7578125 C-13.95833861 76.74864736 -16.2819072 76.73827316 -18.60546875 76.7265625 C-19.70232498 76.72231262 -20.79918121 76.71806274 -21.92927551 76.71368408 C-22.94430649 76.70407654 -23.95933746 76.69446899 -25.00512695 76.68457031 C-26.34460136 76.67432831 -26.34460136 76.67432831 -27.71113586 76.66387939 C-29.9921875 76.5234375 -29.9921875 76.5234375 -32.9921875 75.5234375 C-33.06848826 68.12197501 -33.12089267 60.72061464 -33.15698242 53.31884766 C-33.17203369 50.80285858 -33.19247931 48.28689558 -33.21850586 45.77099609 C-33.25504932 42.14674425 -33.27195103 38.5228405 -33.28515625 34.8984375 C-33.30064011 33.78041748 -33.31612396 32.66239746 -33.33207703 31.51049805 C-33.33388095 23.06779562 -32.2207415 16.37656425 -26.4296875 9.8359375 C-25.83027344 9.13082031 -25.23085938 8.42570312 -24.61328125 7.69921875 C-16.96451429 1.34994424 -9.75478863 -0.21032394 0 0 Z " fill="#37618A" transform="translate(81.9921875,48.4765625)"/>
<path d="M0 0 C7.59 0 15.18 0 23 0 C25.0568946 2.0568946 24.25747076 6.35555998 24.31640625 9.19140625 C24.33718735 10.01124496 24.35796844 10.83108368 24.37937927 11.67576599 C24.44496494 14.30458901 24.50380126 16.93351504 24.5625 19.5625 C24.60567667 21.34050561 24.64929067 23.11850065 24.69335938 24.89648438 C24.80065543 29.26421634 24.90189704 33.63205227 25 38 C33.37733552 27.29853304 41.66719891 16.54082479 49.7800293 5.63720703 C50.18261963 5.09692871 50.58520996 4.55665039 51 4 C51.41266113 3.28086426 51.82532227 2.56172852 52.25048828 1.82080078 C54 0 54 0 56.91088867 -0.45410156 C58.0682251 -0.4331543 59.22556152 -0.41220703 60.41796875 -0.390625 C62.29838867 -0.37128906 62.29838867 -0.37128906 64.21679688 -0.3515625 C65.52712891 -0.31804688 66.83746094 -0.28453125 68.1875 -0.25 C69.5227601 -0.22993307 70.85804883 -0.21168262 72.19335938 -0.1953125 C75.46296146 -0.14809803 78.73112192 -0.08225184 82 0 C80.41763638 4.22360877 78.52981013 7.01441103 75.5625 10.4375 C74.6545212 11.49982689 73.74833796 12.56369052 72.84375 13.62890625 C72.37453125 14.18078613 71.9053125 14.73266602 71.421875 15.30126953 C68.59804787 18.67492839 65.90213477 22.14958509 63.2043457 25.62426758 C60.78490634 28.73841876 58.33672609 31.8195702 55.82421875 34.859375 C55.30980225 35.4898877 54.79538574 36.12040039 54.26538086 36.77001953 C53.27495022 37.98240748 52.27479838 39.18693548 51.26391602 40.38232422 C48.77478313 43.35271982 48.77478313 43.35271982 47.91015625 47.015625 C49.5318655 49.96841461 51.56192153 52.52805895 53.6875 55.125 C54.69208851 56.37705706 55.69595968 57.62968992 56.69921875 58.8828125 C57.23466309 59.54829102 57.77010742 60.21376953 58.32177734 60.89941406 C61.25361591 64.56911715 64.12359437 68.28680026 67 72 C70.42196057 76.41479519 73.84930071 80.82350012 77.3359375 85.1875 C77.85027344 85.83332031 78.36460937 86.47914062 78.89453125 87.14453125 C79.85918994 88.35353621 80.82775811 89.55943536 81.80078125 90.76171875 C85 94.77775931 85 94.77775931 85 97 C57.7477939 99.24576889 57.7477939 99.24576889 52.33984375 94.73828125 C50.27176689 91.91108183 48.67921001 89.21805248 47.14648438 86.08886719 C44.87916052 81.95785721 41.75983858 78.40942414 38.8125 74.75 C37.67036747 73.28864987 36.53097726 71.82515171 35.39453125 70.359375 C34.27433594 68.92078125 33.15414062 67.4821875 32 66 C29.69 63.03 27.38 60.06 25 57 C24.67 70.2 24.34 83.4 24 97 C16.08 97 8.16 97 0 97 C0 64.99 0 32.98 0 0 Z " fill="#FCFCFC" transform="translate(291,37)"/>
<path d="M0 0 C0 7.59 0 15.18 0 23 C-4.15691561 22.16861688 -6.12066182 21.53735279 -9.625 19.5625 C-15.29814154 16.66251856 -21.81693219 13.96875759 -28.25 15.5546875 C-30.38239483 16.4106383 -30.38239483 16.4106383 -33 18 C-33.41771804 21.33200185 -33.41771804 21.33200185 -33 25 C-28.92870309 28.98954396 -23.7544671 31.49383795 -18.8125 34.25 C3.19365432 46.78218358 3.19365432 46.78218358 7 60 C7.87020946 69.00723298 7.50984443 77.19179849 2.078125 84.6328125 C-5.51356201 93.61194575 -13.24575693 97.20196127 -24.828125 98.2578125 C-34.52253251 98.62317962 -43.69760943 96.52870661 -53 94 C-54.53907947 92.46092053 -54.32362017 90.87772457 -54.53515625 88.73828125 C-54.62216797 87.86623047 -54.70917969 86.99417969 -54.79882812 86.09570312 C-54.88583984 85.17724609 -54.97285156 84.25878906 -55.0625 83.3125 C-55.15337891 82.41337891 -55.24425781 81.51425781 -55.33789062 80.58789062 C-55.78165574 76.04013239 -56.11382565 71.57579119 -56 67 C-52.55838955 68.32747832 -49.29717982 69.85141009 -46 71.5 C-38.97200256 74.70058802 -30.6115681 77.18672797 -22.875 75.375 C-19.77325479 73.89155664 -18.39820087 73.14595196 -17 70 C-16.61078098 67.06206856 -16.61078098 67.06206856 -18 64 C-23.02257309 58.5788227 -29.04906451 55.06880512 -35.5 51.625 C-45.40961127 46.11087304 -53.39610272 39.99528153 -56.6875 28.625 C-57.64424553 20.58833751 -57.11798403 13.66047877 -52.5234375 6.79296875 C-39.20639012 -9.59490463 -17.80688424 -5.93562808 0 0 Z " fill="#FDFDFD" transform="translate(273,39)"/>
<path d="M0 0 C1.32 0 2.64 0 4 0 C4.24419678 0.51344971 4.48839355 1.02689941 4.73999023 1.5559082 C10.51692873 13.69183451 16.34799857 25.80053718 22.2250061 37.88824463 C23.31726439 40.13479939 24.4090588 42.38157905 25.50073242 44.62841797 C29.77255052 53.42038618 29.77255052 53.42038618 34.05029297 62.20947266 C35.65485765 65.50338221 37.2562077 68.7988363 38.85531616 72.09539795 C39.71670252 73.86894243 40.58154893 75.64080515 41.4465332 77.41259766 C44.88896066 84.51591937 48.02459789 91.68822481 51 99 C42.75 99 34.5 99 26 99 C21 89 21 89 20 86 C7.46 85.67 -5.08 85.34 -18 85 C-18.99 89.29 -19.98 93.58 -21 98 C-22 99 -22 99 -24.31665039 99.11352539 C-25.31688232 99.10828857 -26.31711426 99.10305176 -27.34765625 99.09765625 C-28.42724609 99.09443359 -29.50683594 99.09121094 -30.61914062 99.08789062 C-31.75544922 99.07951172 -32.89175781 99.07113281 -34.0625 99.0625 C-35.20267578 99.05798828 -36.34285156 99.05347656 -37.51757812 99.04882812 C-40.34510351 99.03699747 -43.1725264 99.0205141 -46 99 C-42.20084991 89.45184017 -37.85185731 80.20403481 -33.4156189 70.93984985 C-31.30240286 66.52652972 -29.19898712 62.10853642 -27.09375 57.69140625 C-26.66724655 56.79727524 -26.2407431 55.90314423 -25.80131531 54.98191833 C-21.56859947 46.10531658 -17.37272844 37.21156962 -13.1875 28.3125 C-12.70172989 27.28065582 -12.70172989 27.28065582 -12.20614624 26.22796631 C-8.09871022 17.50300075 -4.02794047 8.76199996 0 0 Z M3 40 C-1.38102116 49.21257286 -5.27363332 58.50663727 -9 68 C-1.08 68 6.84 68 15 68 C13.3791852 63.89413519 11.75355549 59.79029338 10.125 55.6875 C9.66480469 54.52025391 9.20460938 53.35300781 8.73046875 52.15039062 C8.28574219 51.03212891 7.84101562 49.91386719 7.3828125 48.76171875 C6.97434082 47.73006592 6.56586914 46.69841309 6.14501953 45.63549805 C5.02619863 42.84732533 5.02619863 42.84732533 3 40 Z " fill="#FDFDFD" transform="translate(687,35)"/>
<path d="M0 0 C7.59 0 15.18 0 23 0 C23 24.75 23 49.5 23 75 C35.54 75 48.08 75 61 75 C61 82.26 61 89.52 61 97 C40.87 97 20.74 97 0 97 C0 64.99 0 32.98 0 0 Z " fill="#FEFEFE" transform="translate(579,37)"/>
<path d="M0 0 C3.09244792 0.03255208 6.18489583 0.06510417 9.27734375 0.09765625 C11.43135157 9.09749597 13.29847495 18.12055719 14.96484375 27.22265625 C15.18978516 28.42664063 15.41472656 29.630625 15.64648438 30.87109375 C17.27734375 39.71441632 17.27734375 39.71441632 17.27734375 43.09765625 C13.97734375 43.09765625 10.67734375 43.09765625 7.27734375 43.09765625 C6.94734375 40.12765625 6.61734375 37.15765625 6.27734375 34.09765625 C0.66734375 34.09765625 -4.94265625 34.09765625 -10.72265625 34.09765625 C-11.38265625 36.07765625 -12.04265625 38.05765625 -12.72265625 40.09765625 C-13.38265625 41.08765625 -14.04265625 42.07765625 -14.72265625 43.09765625 C-17.10546875 43.390625 -17.10546875 43.390625 -19.84765625 43.28515625 C-21.21277344 43.24455078 -21.21277344 43.24455078 -22.60546875 43.203125 C-23.30414062 43.16832031 -24.0028125 43.13351563 -24.72265625 43.09765625 C-19.79300845 32.4292013 -14.66095303 21.8922432 -9.22265625 11.47265625 C-8.69446289 10.45937256 -8.16626953 9.44608887 -7.62207031 8.40209961 C-3.27163266 0.11734694 -3.27163266 0.11734694 0 0 Z " fill="#FCFDFE" transform="translate(598.72265625,175.90234375)"/>
<path d="M0 0 C3.70806596 -0.11674705 7.4156554 -0.18743274 11.125 -0.25 C12.17171875 -0.28351563 13.2184375 -0.31703125 14.296875 -0.3515625 C20.5051491 -0.43014825 24.37698105 -0.33502761 29 4 C31.64859293 7.74404496 31.15754887 11.07769609 30.6015625 15.4609375 C29.36461975 20.68179976 26.81675198 23.86287722 22.31640625 26.6796875 C18.47574371 28.20871452 15.18223011 28.34082556 11.125 28.1875 C10.43664062 28.17396484 9.74828125 28.16042969 9.0390625 28.14648438 C7.35902999 28.1114837 5.6794065 28.05768954 4 28 C3.93941406 28.74765625 3.87882813 29.4953125 3.81640625 30.265625 C3.73261719 31.25046875 3.64882813 32.2353125 3.5625 33.25 C3.48128906 34.22453125 3.40007813 35.1990625 3.31640625 36.203125 C3 39 3 39 2 43 C-0.97 43 -3.94 43 -7 43 C-6.41864968 34.74070392 -5.22848815 26.61998062 -3.84326172 18.46264648 C-3.49537925 16.41023888 -3.15551554 14.3566079 -2.81640625 12.30273438 C-1.13021807 2.26043614 -1.13021807 2.26043614 0 0 Z " fill="#FDFDFE" transform="translate(544,176)"/>
<path d="M0 0 C2.54374029 1.82627508 4.03586489 2.94672977 5.4375 5.75 C5.625 9.5 5.625 9.5 5.4375 12.75 C0.03293974 13.19299674 0.03293974 13.19299674 -2.5625 12.75 C-3.036875 11.925 -3.51125 11.1 -4 10.25 C-4.515625 9.425 -5.03125 8.6 -5.5625 7.75 C-8.60740159 7.16705416 -11.51380479 7.20042496 -14.5625 7.75 C-16.84978734 9.58883881 -16.84978734 9.58883881 -16.6875 12.375 C-16.64625 13.15875 -16.605 13.9425 -16.5625 14.75 C-14.89960938 15.20439453 -14.89960938 15.20439453 -13.203125 15.66796875 C-11.73931631 16.09022126 -10.27578898 16.51344999 -8.8125 16.9375 C-7.71808594 17.23237305 -7.71808594 17.23237305 -6.6015625 17.53320312 C-1.84847672 18.93752392 0.81912259 20.29131598 3.4375 24.75 C4.35986707 28.58472294 3.79806655 31.91500377 2.25 35.5 C-1.70565799 40.41047199 -6.11032112 43.29764553 -12.39453125 44.12109375 C-19.33722209 44.27578018 -24.39663057 43.68597472 -29.5625 38.75 C-31.5848003 35.3794995 -31.7847034 32.63855953 -31.5625 28.75 C-28.5925 28.75 -25.6225 28.75 -22.5625 28.75 C-22.27375 29.554375 -21.985 30.35875 -21.6875 31.1875 C-20.82987432 33.8826468 -20.82987432 33.8826468 -18.5625 34.75 C-16.45395964 34.9852732 -16.45395964 34.9852732 -14.125 35 C-12.95130859 35.03867188 -12.95130859 35.03867188 -11.75390625 35.078125 C-9.50307879 34.90958572 -9.50307879 34.90958572 -7.77734375 33.484375 C-6.18002671 31.5568814 -6.18002671 31.5568814 -6.5625 27.75 C-7.58730469 27.43546875 -8.61210938 27.1209375 -9.66796875 26.796875 C-11.02882713 26.36515441 -12.38949427 25.93283066 -13.75 25.5 C-14.42353516 25.29503906 -15.09707031 25.09007812 -15.79101562 24.87890625 C-20.09010072 23.49481056 -23.21176383 21.9051188 -26.5625 18.75 C-28.1172669 15.64046621 -27.84894437 13.18733239 -27.5625 9.75 C-22.23850586 -1.34165447 -11.10332999 -3.89590526 0 0 Z " fill="#FCFDFE" transform="translate(522.5625,176.25)"/>
<path d="M0 0 C10.23 0 20.46 0 31 0 C30.67 2.31 30.34 4.62 30 7 C22.74 7 15.48 7 8 7 C7.67 10.3 7.34 13.6 7 17 C13.27 17 19.54 17 26 17 C26 19.64 26 22.28 26 25 C19.07 25 12.14 25 5 25 C4.67 28.3 4.34 31.6 4 35 C10.93 35 17.86 35 25 35 C25 41 25 41 24 43 C13.77 43 3.54 43 -7 43 C-6.16630935 37.35792839 -5.33099648 31.71614797 -4.49145508 26.07495117 C-4.20630434 24.15549882 -3.92211898 22.2359028 -3.63891602 20.31616211 C-3.23186427 17.55804791 -2.82135245 14.80046771 -2.41015625 12.04296875 C-2.28407486 11.18350143 -2.15799347 10.32403412 -2.02809143 9.43852234 C-1.84801796 8.23761711 -1.84801796 8.23761711 -1.66430664 7.01245117 C-1.5599379 6.3085173 -1.45556915 5.60458344 -1.34803772 4.87931824 C-1 3 -1 3 0 0 Z " fill="#FCFDFE" transform="translate(682,176)"/>
<path d="M0 0 C3.35570098 2.43288321 5.64707145 5.10664291 7.5 8.8125 C7.539992 10.81210012 7.54346799 12.81297242 7.5 14.8125 C4.53 14.8125 1.56 14.8125 -1.5 14.8125 C-1.95375 13.843125 -2.4075 12.87375 -2.875 11.875 C-4.15786221 8.74170418 -4.15786221 8.74170418 -6.5 7.8125 C-11.47722669 7.43686025 -14.61357767 7.55630832 -18.5 10.8125 C-22.40161293 16.12302872 -23.8045877 21.1985956 -23.5 27.8125 C-22.00049227 32.18184877 -22.00049227 32.18184877 -18.5 34.8125 C-13.56651046 34.94819519 -10.34705293 34.51837744 -6.5 31.3125 C-5.51 30.075 -5.51 30.075 -4.5 28.8125 C-3.5 27.8125 -3.5 27.8125 -1.43359375 27.71484375 C-0.19802734 27.73224609 -0.19802734 27.73224609 1.0625 27.75 C1.88878906 27.75902344 2.71507812 27.76804688 3.56640625 27.77734375 C4.52353516 27.79474609 4.52353516 27.79474609 5.5 27.8125 C3.57356751 35.34309972 -1.03551996 38.8775991 -7.5 42.8125 C-13.25386207 44.73045402 -19.30606817 44.70553484 -24.875 42.1875 C-29.54243313 39.53790665 -31.82020519 35.85188442 -33.5 30.8125 C-34.45674111 21.3862474 -32.61365941 13.46733586 -26.75 5.9375 C-19.48262746 -1.7095114 -9.97530955 -3.38448003 0 0 Z " fill="#FCFDFE" transform="translate(659.5,176.1875)"/>
<path d="M0 0 C0.77988281 -0.01417969 1.55976562 -0.02835938 2.36328125 -0.04296875 C4.8907668 0.20765587 6.50468031 0.92376228 8.6875 2.1875 C9.05431223 9.64601528 9.05431223 9.64601528 7.375 12.125 C4.24443126 14.09609884 1.59448862 14.30209404 -2 14.25 C-3.21236328 14.23646484 -3.21236328 14.23646484 -4.44921875 14.22265625 C-5.37154297 14.20525391 -5.37154297 14.20525391 -6.3125 14.1875 C-6.17220581 12.0412974 -6.02511836 9.89553782 -5.875 7.75 C-5.79378906 6.55503906 -5.71257813 5.36007813 -5.62890625 4.12890625 C-5.14977467 -0.32524286 -4.13401237 0.03382989 0 0 Z " fill="#A0C4DF" transform="translate(556.3125,182.8125)"/>
<path d="M0 0 C2.15059309 3.53186832 2.3797728 6.66287993 2.625 10.75 C2.69976563 11.92046875 2.77453125 13.0909375 2.8515625 14.296875 C2.90054688 15.18890625 2.94953125 16.0809375 3 17 C-0.3 17 -3.6 17 -7 17 C-5.24009216 11.08030998 -2.60305395 5.58365008 0 0 Z " fill="#A0C4DE" transform="translate(600,185)"/>
</svg>
