<?xml version="1.0" encoding="UTF-8"?>
<svg version="1.1" xmlns="http://www.w3.org/2000/svg" width="1588" height="503">
<path d="M0 0 C1.95662528 -0.00644892 3.91324964 -0.01317871 5.86987305 -0.02017212 C9.9441959 -0.03205497 14.01843452 -0.03586197 18.09277344 -0.03466797 C23.26999591 -0.03446452 28.44667117 -0.06183484 33.62376404 -0.09621239 C37.65623378 -0.11862117 41.68857427 -0.12250137 45.72109985 -0.12144852 C47.6281626 -0.12378086 49.53523023 -0.13246775 51.44223022 -0.14811325 C71.51245191 -0.29747281 88.66654509 2.88744817 104.3125 16.3359375 C105.22128906 17.08423828 105.22128906 17.08423828 106.1484375 17.84765625 C117.30081401 27.86460981 123.06415144 43.74662459 124.3125 58.3359375 C124.44060609 62.24298153 124.42932614 66.14589966 124.41015625 70.0546875 C124.40803383 71.7024115 124.40803383 71.7024115 124.40586853 73.38342285 C124.40030257 76.86762293 124.38775639 80.35175708 124.375 83.8359375 C124.3699806 86.2083324 124.36541846 88.58072832 124.36132812 90.953125 C124.3503443 96.74741806 124.3336403 102.54167307 124.3125 108.3359375 C125.55652588 108.47837891 126.80055176 108.62082031 128.08227539 108.76757812 C132.1842254 109.23725286 135.90633003 110.35234676 139.75 111.8359375 C140.76936646 112.22579834 140.76936646 112.22579834 141.80932617 112.62353516 C154.21092052 117.53087538 165.93406089 123.93574994 176.3125 132.3359375 C176.86534668 132.78340332 177.41819336 133.23086914 177.98779297 133.69189453 C201.30901528 152.7243027 218.11208119 177.90719878 225.3125 207.3359375 C225.47476074 207.99255371 225.63702148 208.64916992 225.80419922 209.32568359 C234.21062195 245.25034463 226.23430803 282.23013627 207.3125 313.3359375 C204.30787561 317.96338042 200.92963245 322.16611159 197.3125 326.3359375 C196.85794434 326.8712207 196.40338867 327.40650391 195.93505859 327.95800781 C178.78457785 348.04436845 155.96560361 362.35591459 130.625 369.7109375 C129.39813477 370.06889404 129.39813477 370.06889404 128.14648438 370.43408203 C113.70518637 374.38117988 99.47397 374.64841735 84.62109375 374.63671875 C82.54232194 374.64061569 80.46355091 374.64495237 78.38478088 374.64970398 C74.05052088 374.65712127 69.71634242 374.65690684 65.38208008 374.65161133 C59.85933121 374.64580927 54.3369169 374.66278766 48.81422329 374.685956 C44.52881457 374.70076299 40.24348527 374.70155582 35.9580555 374.69844627 C33.92292682 374.69895554 31.88779322 374.70411813 29.85268974 374.71425819 C8.95035807 374.80568339 -8.92676601 371.80383742 -24.54296875 356.6796875 C-37.31022705 342.72639974 -42.24516454 326.14399615 -41.98046875 307.47265625 C-41.97622391 306.31466019 -41.97197906 305.15666412 -41.96760559 303.96357727 C-41.95100389 300.31661297 -41.9133873 296.67023074 -41.875 293.0234375 C-41.85992922 290.52930494 -41.84624505 288.03516359 -41.83398438 285.54101562 C-41.80116135 279.47246243 -41.75115102 273.40424157 -41.6875 267.3359375 C-42.5082048 267.13473801 -43.32890961 266.93353851 -44.17448425 266.72624207 C-45.25281021 266.45975357 -46.33113617 266.19326508 -47.44213867 265.91870117 C-48.51034348 265.65562668 -49.57854828 265.39255219 -50.67912292 265.12150574 C-71.82633323 259.59939986 -89.98526398 247.15427281 -105.6875 232.3359375 C-106.42484375 231.66304687 -107.1621875 230.99015625 -107.921875 230.296875 C-132.43298022 207.08955198 -145.2857686 173.14651469 -146.66577148 139.84375 C-147.37434126 108.75183004 -138.14525293 77.77125513 -118.6875 53.3359375 C-118.28160645 52.82321289 -117.87571289 52.31048828 -117.45751953 51.78222656 C-94.46180154 22.96184986 -62.02438348 4.9997086 -25.32006836 0.75946045 C-16.90673745 -0.09344093 -8.44746704 0.00664569 0 0 Z " fill="#EE8680" transform="translate(146.6875,-0.3359375)"/>
<path d="M0 0 C0.91915497 -0.00581376 1.83830993 -0.01162753 2.78531808 -0.01761746 C5.86419558 -0.03221122 8.94227513 -0.01833482 12.02114677 -0.00457001 C14.2511714 -0.00917914 16.48119299 -0.01553213 18.71120822 -0.02347898 C24.83848221 -0.04019333 30.96550732 -0.03191621 37.09278226 -0.01953411 C43.02220023 -0.01142314 48.95157658 -0.02206945 54.88098499 -0.03212357 C67.7558462 -0.05318222 80.63062799 -0.05136287 93.50549674 -0.03980792 C104.77122888 -0.02974671 116.03693191 -0.02711843 127.30266762 -0.0318985 C128.04987421 -0.03220404 128.79708081 -0.03250958 129.56693003 -0.03282438 C132.60004362 -0.03406972 135.63315721 -0.03534332 138.66627077 -0.03666343 C167.11842813 -0.04889925 195.57053491 -0.03780543 224.02268446 -0.01627585 C249.30612436 0.00271047 274.58948369 0.00100479 299.8729229 -0.01811981 C328.27597219 -0.03953228 356.6789768 -0.0480354 385.08203304 -0.03567076 C388.10900806 -0.03438787 391.1359831 -0.03313651 394.16295815 -0.0318985 C394.90828286 -0.03158219 395.65360758 -0.03126588 396.4215179 -0.03093999 C407.68213769 -0.02638797 418.94272521 -0.03171506 430.20334053 -0.04181671 C443.00418869 -0.05324278 455.804945 -0.05041772 468.60578169 -0.02869374 C475.14013297 -0.01797061 481.67435418 -0.01409894 488.20870781 -0.02729034 C494.18568357 -0.03917432 500.16234305 -0.03271753 506.13928996 -0.01138014 C508.30603105 -0.00689717 510.47279864 -0.00921805 512.63952281 -0.01888329 C515.57662477 -0.03098406 518.51263241 -0.01863609 521.44967651 0 C522.29797419 -0.00936466 523.14627187 -0.01872933 524.02027553 -0.02837777 C530.26419753 0.05122598 533.78464113 1.88310209 538.41149712 6.19086456 C542.07812022 13.33113061 540.29785238 21.90715324 539.18371391 29.48969269 C538.94003578 31.24025215 538.94003578 31.24025215 538.69143486 33.02617645 C538.15441107 36.86391877 537.60156453 40.69919491 537.04821587 44.53461456 C536.66840267 47.21275521 536.29172268 49.89133437 535.91486931 52.56989288 C535.12437969 58.17590781 534.32559834 63.78068896 533.52111626 69.38471222 C532.4917749 76.55539502 531.47603273 83.72793424 530.46464634 90.90116882 C529.59103005 97.09655751 528.71126035 103.29107014 527.83046174 109.48544121 C527.54951961 111.46293779 527.26943439 113.44055604 526.98935318 115.41817474 C526.4641436 119.11834351 525.93406418 122.81778108 525.40246391 126.51703644 C525.24912086 127.60197891 525.09577782 128.68692139 524.93778801 129.80474091 C522.36367914 147.59329458 522.36367914 147.59329458 518.22399712 151.94086456 C517.34614555 152.89799347 517.34614555 152.89799347 516.45055962 153.87445831 C511.8968089 157.88060609 507.49069512 157.78861736 501.64333344 157.76063347 C500.72372873 157.76413954 499.80412402 157.76764562 498.8566525 157.77125794 C495.75236706 157.78061655 492.64826739 157.77563713 489.54397392 157.7707901 C487.3050297 157.77452411 485.06608677 157.77912462 482.82714593 157.78452075 C476.65669759 157.79679691 470.48630327 157.79648486 464.31584549 157.79413199 C458.35030957 157.79376676 452.38478964 157.80273767 446.41926156 157.81135777 C432.70660574 157.83071827 418.99396486 157.83632675 405.28129698 157.83747189 C394.69362525 157.83839029 384.10595939 157.84250339 373.51828957 157.84887314 C370.47278321 157.85066817 367.42727685 157.8524478 364.38177049 157.85422289 C363.6246915 157.85466499 362.8676125 157.85510709 362.08759172 157.85556258 C340.7871014 157.86787411 319.48661312 157.87576339 298.18611908 157.87487602 C297.38274133 157.87484486 296.57936359 157.87481371 295.75164106 157.87478161 C291.67960588 157.87461539 287.60757071 157.8744173 283.53553553 157.87421219 C282.72678583 157.8741723 281.91803614 157.87413241 281.08477888 157.87409131 C279.44928955 157.87401044 277.81380022 157.87392684 276.1783109 157.87384053 C250.72769649 157.87261477 225.27713535 157.88763139 199.82653618 157.91498566 C171.24626543 157.94569088 142.66602969 157.96291911 114.0857414 157.96105921 C111.03960633 157.96090995 107.99347127 157.96081254 104.9473362 157.96075058 C104.19727603 157.96072727 103.44721585 157.96070396 102.67442659 157.96067995 C90.59170005 157.96061834 78.50901967 157.9734028 66.42630687 157.99061511 C54.28810242 158.00754913 42.14996567 158.00956296 30.01175596 157.99639647 C23.43287035 157.98964542 16.85411887 157.98982764 10.27524567 158.00710297 C4.2574128 158.02274299 -1.76011811 158.02006326 -7.77794321 158.0025347 C-9.95961311 157.99944473 -12.14130504 158.00317155 -14.32294898 158.01425485 C-17.28022148 158.02828823 -20.2364219 158.01785851 -23.19365692 158.0011425 C-24.04791102 158.01107886 -24.90216513 158.02101522 -25.78230572 158.03125268 C-31.11532491 157.96717572 -34.18746739 157.07262033 -38.40100288 153.50336456 C-44.06869799 144.7275786 -40.23611951 132.60182992 -38.85046577 122.81903839 C-38.6974752 121.71983566 -38.54448463 120.62063293 -38.38685799 119.48812103 C-37.88581973 115.89506673 -37.37993083 112.30271615 -36.87365913 108.71039581 C-36.52096745 106.19322552 -36.16846714 103.67602841 -35.81614876 101.15880585 C-35.0794576 95.90103304 -34.34039453 90.64360122 -33.59948921 85.3864212 C-32.74606597 79.33052416 -31.89769786 73.27393459 -31.05189902 67.21696836 C-30.23345792 61.35709909 -29.41093211 55.49780835 -28.58673096 49.63874626 C-28.23840572 47.15947979 -27.89115987 44.68006141 -27.5450325 42.20048714 C-27.06049478 38.73299143 -26.57130912 35.26618156 -26.08093452 31.79950714 C-25.9400843 30.78473297 -25.79923409 29.7699588 -25.65411568 28.7244339 C-23.01635138 10.20712333 -23.01635138 10.20712333 -17.40100288 4.50336456 C-11.80128699 0.65469379 -6.65685056 -0.07389526 0 0 Z " fill="#9EC3DE" transform="translate(1047.4010028839111,345.4966354370117)"/>
<path d="M0 0 C1.95662528 -0.00644892 3.91324964 -0.01317871 5.86987305 -0.02017212 C9.9441959 -0.03205497 14.01843452 -0.03586197 18.09277344 -0.03466797 C23.26999591 -0.03446452 28.44667117 -0.06183484 33.62376404 -0.09621239 C37.65623378 -0.11862117 41.68857427 -0.12250137 45.72109985 -0.12144852 C47.6281626 -0.12378086 49.53523023 -0.13246775 51.44223022 -0.14811325 C71.51245191 -0.29747281 88.66654509 2.88744817 104.3125 16.3359375 C105.22128906 17.08423828 105.22128906 17.08423828 106.1484375 17.84765625 C117.30081401 27.86460981 123.06415144 43.74662459 124.3125 58.3359375 C124.44060609 62.24298153 124.42932614 66.14589966 124.41015625 70.0546875 C124.40803383 71.7024115 124.40803383 71.7024115 124.40586853 73.38342285 C124.40030257 76.86762293 124.38775639 80.35175708 124.375 83.8359375 C124.3699806 86.2083324 124.36541846 88.58072832 124.36132812 90.953125 C124.35119824 96.74741945 124.33244457 102.54167014 124.3125 108.3359375 C123.75631422 108.24732924 123.20012844 108.15872099 122.62708855 108.06742764 C108.76276953 105.90376561 95.27929394 104.87231692 81.2578125 104.90234375 C79.33218201 104.89776072 77.40655314 104.89244905 75.48092651 104.88645935 C71.48949437 104.87763197 67.49826346 104.87983499 63.50683594 104.88989258 C58.43736718 104.90143429 53.36858971 104.88103781 48.2992115 104.85197544 C44.33879327 104.83349218 40.37853761 104.83392878 36.41808701 104.83961296 C34.55010882 104.83976435 32.68211829 104.83387474 30.81418228 104.82132149 C10.0691236 104.70135442 -8.17633051 108.42617038 -23.6875 123.3359375 C-34.51824753 135.68678994 -39.97252408 148.29864513 -40.00634766 164.59545898 C-40.01639328 165.70838821 -40.0264389 166.82131744 -40.03678894 167.9679718 C-40.06757469 171.63098657 -40.08464352 175.29392839 -40.1015625 178.95703125 C-40.12027782 181.50294114 -40.13985151 184.04884485 -40.1602478 186.59474182 C-40.20629975 192.6010324 -40.24372171 198.60731626 -40.27692068 204.61368662 C-40.31522141 211.45537268 -40.36461057 218.29696486 -40.41490483 225.13857162 C-40.5180582 239.20429051 -40.60737223 253.27006993 -40.6875 267.3359375 C-42.2738488 267.02996854 -43.85958814 266.72083876 -45.44506836 266.41040039 C-46.7697538 266.15269615 -46.7697538 266.15269615 -48.12120056 265.88978577 C-70.17946357 261.12926151 -89.59049322 247.52682138 -105.6875 232.3359375 C-106.42484375 231.66304687 -107.1621875 230.99015625 -107.921875 230.296875 C-132.43298022 207.08955198 -145.2857686 173.14651469 -146.66577148 139.84375 C-147.37434126 108.75183004 -138.14525293 77.77125513 -118.6875 53.3359375 C-118.28160645 52.82321289 -117.87571289 52.31048828 -117.45751953 51.78222656 C-94.46180154 22.96184986 -62.02438348 4.9997086 -25.32006836 0.75946045 C-16.90673745 -0.09344093 -8.44746704 0.00664569 0 0 Z " fill="#9DC2DD" transform="translate(146.6875,-0.3359375)"/>
<path d="M0 0 C22.6343289 19.448265 37.04209242 45.09955319 39.65625 75.04296875 C41.99617778 106.290625 35.19094599 136.7604461 14.4296875 160.97265625 C-2.99205628 180.67330063 -27.36569616 195.23319083 -54.0390625 197.49609375 C-86.58164352 199.04350755 -113.5679641 190.17338281 -138.0859375 168.56640625 C-159.4586836 148.24962587 -170.23719575 119.63572074 -171.10131836 90.54760742 C-171.42449204 58.34018549 -160.19303119 29.74357393 -137.75 6.625 C-101.2634806 -29.98354789 -40.07021933 -31.78754829 0 0 Z M-98.75 37.625 C-99.35585937 38.12515625 -99.96171875 38.6253125 -100.5859375 39.140625 C-111.20174241 48.65161763 -118.02286716 64.86485505 -118.89086914 78.90332031 C-119.67774763 99.56331798 -116.94457255 117.23133203 -103 133.5 C-93.28649198 143.58033234 -81.7997031 149.56798489 -67.7421875 150.09570312 C-53.25276772 150.26603329 -41.13356448 146.36470672 -30.30859375 136.37109375 C-15.61395444 120.88080561 -11.17472567 102.86222094 -11.4765625 82.1015625 C-12.07073705 65.16464623 -18.94427142 50.3055445 -30.8515625 38.29296875 C-41.34010221 28.63842344 -53.16577877 24.25602459 -67.3671875 24.47265625 C-79.57801328 25.25334839 -89.6055969 29.61080403 -98.75 37.625 Z " fill="#706F70" transform="translate(1183.75,96.375)"/>
<path d="M0 0 C2.64249226 2.23414504 5.20505959 4.54343204 7.76245117 6.87475586 C8.76018555 7.74874023 8.76018555 7.74874023 9.77807617 8.64038086 C30.3137666 27.64069256 39.6481595 56.91643307 40.72729492 84.11303711 C41.36182551 115.77945294 31.47742295 142.04874436 10.76245117 165.87475586 C10.22362305 166.49866211 9.68479492 167.12256836 9.12963867 167.76538086 C-8.34769678 186.5601034 -35.31391392 196.97071777 -60.51489258 198.09350586 C-90.18543859 198.94445905 -115.54551768 188.22876993 -137.57348633 168.81616211 C-157.97271693 149.42479863 -169.6866697 121.33528215 -170.40551758 93.36694336 C-170.74092696 59.37393137 -160.5186909 31.08713032 -137.05004883 6.31225586 C-100.61779472 -28.9244666 -39.46224738 -32.28224124 0 0 Z M-98.23754883 37.87475586 C-98.8434082 38.37491211 -99.44926758 38.87506836 -100.07348633 39.39038086 C-110.40091726 48.64301128 -117.45684422 64.70368051 -118.41455078 78.4074707 C-118.89754837 99.51696709 -116.81899587 117.05248264 -102.48754883 133.74975586 C-92.77404081 143.8300882 -81.28725193 149.81774075 -67.22973633 150.34545898 C-52.74031655 150.51578915 -40.6211133 146.61446258 -29.79614258 136.62084961 C-15.36210397 121.40527254 -10.65216932 103.57264702 -10.96411133 83.12475586 C-11.58267261 66.27049214 -18.39209103 50.43021113 -30.33911133 38.50756836 C-40.89717126 28.91709343 -52.62673684 24.50537483 -66.85473633 24.72241211 C-79.06556211 25.50310425 -89.09314573 29.86055989 -98.23754883 37.87475586 Z " fill="#706F70" transform="translate(962.237548828125,96.125244140625)"/>
<path d="M0 0 C1.92891042 -0.00202733 3.85782008 -0.00494421 5.78672791 -0.00869751 C9.81516876 -0.01309728 13.84340885 -0.00677097 17.87182617 0.00732422 C22.97581455 0.02433346 28.07932657 0.01461231 33.18329716 -0.00339317 C37.16533328 -0.01436443 41.14726124 -0.01072308 45.12930107 -0.0030098 C47.00791928 -0.00104015 48.88654806 -0.00334993 50.76515388 -0.01044846 C63.71374435 -0.04862412 76.24133841 0.87833974 88.96484375 3.3984375 C90.5237085 4.95730225 90.10360057 6.46269047 90.1187439 8.63174438 C90.12734436 9.54541275 90.13594482 10.45908112 90.14480591 11.4004364 C90.15119583 12.91659294 90.15119583 12.91659294 90.15771484 14.46337891 C90.16998108 16.05142586 90.16998108 16.05142586 90.18249512 17.67155457 C90.20742993 21.19769724 90.22389525 24.72379913 90.23828125 28.25 C90.24360493 29.45497509 90.2489286 30.65995018 90.2544136 31.90143967 C90.28119375 38.29235957 90.30054379 44.6832597 90.31494141 51.07421875 C90.3315045 57.64986955 90.37619826 64.22501084 90.42731285 70.80047035 C90.46114219 75.87432361 90.47253666 80.94805904 90.47816849 86.02201462 C90.48484911 88.44348367 90.499987 90.86494586 90.5240593 93.28630447 C90.72581949 114.8287233 87.81813693 132.82205289 72.37890625 149.11328125 C65.57923493 155.54986333 57.75323478 160.19467947 48.96484375 163.3984375 C48.31951691 163.64713593 47.67419006 163.89583435 47.00930786 164.15206909 C37.07805342 167.43861758 26.78552289 166.83216768 16.453125 166.796875 C14.35483194 166.79890022 12.25653957 166.80181538 10.1582489 166.80557251 C5.77152776 166.8099796 1.38499065 166.80362023 -3.00170898 166.78955078 C-8.58143991 166.77251313 -14.16073607 166.78227619 -19.74045086 166.80026817 C-24.07232335 166.81119519 -28.40409566 166.80761823 -32.73597145 166.7998848 C-34.79094305 166.79790457 -36.8459242 166.80026408 -38.90088463 166.80732346 C-50.98781538 166.83972537 -62.2391625 166.18329852 -74.03515625 163.3984375 C-74.12890159 148.74199844 -74.19928254 134.08559945 -74.24240494 119.42892075 C-74.26296617 112.6224333 -74.29096213 105.81613293 -74.33691406 99.00976562 C-74.38128034 92.43508872 -74.40432801 85.86053274 -74.41466522 79.2857132 C-74.42202733 76.78362225 -74.4364035 74.2815413 -74.45807648 71.77953339 C-74.48732615 68.2613219 -74.49110314 64.74390041 -74.48925781 61.22558594 C-74.50363892 60.20274506 -74.51802002 59.17990417 -74.53283691 58.12606812 C-74.44489175 42.52063334 -66.98285156 28.80736199 -56.4140625 17.6484375 C-40.28591041 2.39422469 -21.21848269 -0.07947579 0 0 Z " fill="#37618A" transform="translate(180.03515625,103.6015625)"/>
<path d="M0 0 C16.5 0 33 0 50 0 C50.33 28.38 50.66 56.76 51 86 C63.49400424 69.60320917 63.49400424 69.60320917 75.890625 53.13671875 C83.65622976 42.78342059 91.54492129 32.52192838 99.40234375 22.23828125 C100.47887207 20.82808716 100.47887207 20.82808716 101.57714844 19.3894043 C102.9453396 17.59717517 104.31442536 15.80562849 105.68457031 14.01489258 C106.61994629 12.78935669 106.61994629 12.78935669 107.57421875 11.5390625 C108.11651123 10.82959473 108.65880371 10.12012695 109.2175293 9.38916016 C110.98973228 7.18255053 110.98973228 7.18255053 111.84700012 5.18388367 C113.03253261 2.9384688 113.99718395 1.58046892 116 0 C120.53518261 -0.99804928 124.9895608 -0.81343033 129.61328125 -0.68359375 C130.9513235 -0.67052715 132.28939938 -0.66056798 133.62748718 -0.65357971 C137.13829078 -0.62693493 140.64704577 -0.55825232 144.15704346 -0.48065186 C147.74308559 -0.40885993 151.32946099 -0.37703474 154.91601562 -0.34179688 C161.94484524 -0.26687135 168.97228843 -0.14750668 176 0 C173.64057177 4.01356957 171.02246011 7.67495322 168.125 11.3125 C167.40969116 12.21730103 167.40969116 12.21730103 166.67993164 13.14038086 C162.42655415 18.5036337 158.09777562 23.80504347 153.76806641 29.10668945 C149.60701952 34.21578393 145.58872909 39.41608262 141.59375 44.65625 C138.09761824 49.20122129 134.44618338 53.62032798 130.81640625 58.05859375 C126.64612413 63.17086901 122.62054844 68.37386174 118.62109375 73.62109375 C114.97117553 78.3661304 111.16914865 82.98960582 107.37695312 87.62109375 C104.85438957 90.70388307 102.35013779 93.78186707 100 97 C101.26325386 99.65965367 102.6314606 102.00993639 104.3984375 104.36328125 C104.87168457 104.99516357 105.34493164 105.6270459 105.83251953 106.27807617 C106.59604736 107.28511597 106.59604736 107.28511597 107.375 108.3125 C107.90593262 109.01673096 108.43686523 109.72096191 108.98388672 110.4465332 C113.10992592 115.89137273 117.34678283 121.24080242 121.63378906 126.55932617 C126.52449073 132.62946523 131.26815403 138.80572267 136 145 C143.34471215 154.57740705 150.74363991 164.11164392 158.15917969 173.63427734 C160.01685297 176.02165853 161.87206146 178.41093526 163.7265625 180.80078125 C164.33387207 181.58300049 164.94118164 182.36521973 165.56689453 183.17114258 C166.7583967 184.70580896 167.94948747 186.24079484 169.14013672 187.77612305 C172.93609463 192.66169169 176.79094719 197.48867276 180.7421875 202.25 C182 204 182 204 182 206 C174.20287981 206.27917889 166.40694804 206.49180847 158.60607243 206.62174606 C154.98256407 206.68414708 151.36249492 206.76860426 147.7409668 206.90527344 C144.23930665 207.0365778 140.74093072 207.10758158 137.2369976 207.13852692 C135.2635877 207.17119737 133.29148547 207.26474915 131.32008362 207.35955811 C125.78230922 207.3636703 122.39099296 207.3059054 118.24360657 203.41221619 C115.87265945 200.45339189 113.94666711 197.25081815 112 194 C110.82686245 192.43138365 109.63491228 190.87630978 108.41015625 189.34765625 C107.85875977 188.64084717 107.30736328 187.93403809 106.73925781 187.20581055 C106.18592773 186.49851807 105.63259766 185.79122559 105.0625 185.0625 C103.84999525 183.50801929 102.63775717 181.95333055 101.42578125 180.3984375 C100.55107178 179.27646973 100.55107178 179.27646973 99.65869141 178.13183594 C94.9604593 172.09342517 90.31353501 166.01530729 85.65625 159.9453125 C80.33648905 153.0192601 74.98873347 146.11583807 69.61230469 139.23364258 C63.34881342 131.19999347 57.18907609 123.09340719 51 115 C50.67 145.03 50.34 175.06 50 206 C33.5 206 17 206 0 206 C0 138.02 0 70.04 0 0 Z " fill="#706F70" transform="translate(627,81)"/>
<path d="M0 0 C0.97235596 0.19609863 1.94471191 0.39219727 2.9465332 0.59423828 C11.24309816 2.41371554 18.77058934 5.09019645 26.9375 7.8125 C26.9375 23.9825 26.9375 40.1525 26.9375 56.8125 C23.34599371 55.37589748 19.99649979 53.8611643 16.57055664 52.09619141 C-7.00325149 39.78583306 -7.00325149 39.78583306 -32.91015625 39.53515625 C-37.8110571 41.31795818 -41.55906178 43.02331383 -44.0625 47.8125 C-45.52525509 53.85855436 -45.20888771 57.25388171 -42.0625 62.8125 C-35.95115775 70.40537976 -25.74323969 74.5766159 -17.34350586 79.16577148 C33.32748093 106.87485126 33.32748093 106.87485126 41.25 131.4375 C46.35906944 149.54183735 44.22991174 168.11876922 35.37109375 184.75390625 C25.62750033 201.00829992 10.45219517 210.40050856 -7.5625 215.5234375 C-9.72383745 216.04125793 -11.86889284 216.45789433 -14.0625 216.8125 C-14.70703125 216.92335938 -15.3515625 217.03421875 -16.015625 217.1484375 C-37.82592732 220.22851836 -67.24916586 217.71916707 -87.0625 207.8125 C-87.4548645 205.78973389 -87.4548645 205.78973389 -87.65673828 203.09667969 C-87.73667023 202.09183533 -87.81660217 201.08699097 -87.8989563 200.05169678 C-87.97612885 198.95698059 -88.05330139 197.8622644 -88.1328125 196.734375 C-88.26174393 195.05628754 -88.26174393 195.05628754 -88.39328003 193.34429932 C-88.66692393 189.75097471 -88.92709864 186.15680602 -89.1875 182.5625 C-89.37026391 180.15228068 -89.55384713 177.74212334 -89.73828125 175.33203125 C-90.07258718 170.9036622 -90.40651962 166.4752875 -90.72705078 162.04589844 C-90.79207794 161.15400818 -90.8571051 160.26211792 -90.92410278 159.34320068 C-91.06168956 156.82731948 -91.08680564 154.33158281 -91.0625 151.8125 C-87.58712866 153.13702287 -84.36158222 154.66273094 -81.10546875 156.45703125 C-62.85464879 166.35559556 -43.15414727 175.78015566 -21.78515625 171.09375 C-15.84868348 169.07420919 -10.26849897 166.49934257 -6.93359375 160.92578125 C-5.41563274 157.24319421 -5.53827245 153.72098138 -6.0625 149.8125 C-12.71171666 134.38631735 -30.69512532 126.9582908 -44.50756836 119.12329102 C-65.07812249 107.44284427 -84.58213042 94.25149378 -91.30859375 70.30078125 C-94.54125354 55.34344866 -93.40062111 40.37409091 -86.0625 26.8125 C-83.65241583 23.2102757 -81.00658842 19.98945417 -78.0625 16.8125 C-77.49144531 16.18730469 -76.92039062 15.56210938 -76.33203125 14.91796875 C-67.70703444 6.48336922 -54.75806845 1.08768293 -43.0625 -1.1875 C-42.19496094 -1.36667969 -41.32742188 -1.54585938 -40.43359375 -1.73046875 C-26.97235747 -3.55545675 -13.26824389 -2.67586272 0 0 Z " fill="#706F70" transform="translate(559.0625,76.1875)"/>
<path d="M0 0 C1.32 0 2.64 0 4 0 C9.94084132 11.76880492 15.79080752 23.5735811 21.45263672 35.47924805 C25.73228699 44.46830115 30.0817122 53.42268402 34.4375 62.375 C39.31658568 72.40485348 44.18456499 82.43937528 49 92.5 C54.11884477 103.19261898 59.29424095 113.85725055 64.47799683 124.51849365 C69.91683877 135.7046874 75.33830248 146.89897112 80.73925781 158.10351562 C83.9109233 164.68083691 87.0923762 171.25322029 90.28515625 177.8203125 C91.01489884 179.32209982 91.74463519 180.82389017 92.47436523 182.32568359 C93.8719855 185.20180647 95.27152448 188.07698481 96.67211914 190.95166016 C106 210.12417785 106 210.12417785 106 213 C88.84 213 71.68 213 54 213 C49.2624432 203.5248864 45.11088146 193.76334348 41 184 C13.94 184 -13.12 184 -41 184 C-44.96 198.355 -44.96 198.355 -49 213 C-65.83 213 -82.66 213 -100 213 C-97.47781039 206.69452598 -94.94914762 200.56655212 -92.015625 194.46875 C-91.64317154 193.68774933 -91.27071808 192.90674866 -90.88697815 192.1020813 C-90.09059776 190.43291115 -89.29284196 188.76439662 -88.49380493 187.09649658 C-86.78885552 183.53734096 -85.09091031 179.97485921 -83.39265442 176.4125061 C-82.52268354 174.5876265 -81.65239234 172.76289957 -80.78178406 170.93832397 C-76.76333089 162.5139918 -72.78148788 154.07272663 -68.8125 145.625 C-68.15854063 144.23371833 -67.50456926 142.84244229 -66.85058594 141.45117188 C-65.55065002 138.68535939 -64.25106631 135.91938171 -62.95166016 133.15332031 C-59.97192557 126.81108149 -56.98723694 120.47117366 -54.00302124 114.13104248 C-52.33515405 110.58745269 -50.66759215 107.04371923 -49 103.5 C-48.3333348 102.08333264 -47.66666814 100.66666598 -47 99.25 C-46.67 98.54875 -46.34 97.8475 -46 97.125 C-45 95 -44 92.875 -43 90.75 C-42.67002014 90.04879028 -42.34004028 89.34758057 -42.00006104 88.62512207 C-41.33319876 87.20804481 -40.66632863 85.79097125 -39.99945068 84.37390137 C-38.33571266 80.83854689 -36.67210968 77.303129 -35.00878906 73.76757812 C-31.97406919 67.31733412 -28.93826055 60.86761219 -25.89756775 54.42018127 C-24.18106311 50.78042653 -22.46543841 47.14025736 -20.75 43.5 C-20.41853973 42.79682648 -20.08707947 42.09365295 -19.74557495 41.36917114 C-16.25702809 33.96585062 -12.78410016 26.55598835 -9.36328125 19.12109375 C-9.079617 18.50469025 -8.79595276 17.88828674 -8.50369263 17.25320435 C-7.1784528 14.37114488 -5.85707413 11.48738148 -4.54003906 8.6015625 C-4.08467773 7.60769531 -3.62931641 6.61382812 -3.16015625 5.58984375 C-2.56666382 4.28841431 -2.56666382 4.28841431 -1.96118164 2.96069336 C-1 1 -1 1 0 0 Z M4 85 C3.6690332 85.79245117 3.33806641 86.58490234 2.99707031 87.40136719 C1.70823011 90.48553607 0.4184147 93.56929298 -0.8722229 96.65270996 C-1.45641416 98.04852959 -2.04037898 99.44444402 -2.62411499 100.8404541 C-5.886872 108.64074174 -9.17124461 116.43022581 -12.53515625 124.1875 C-12.8136441 124.83100403 -13.09213196 125.47450806 -13.37905884 126.13751221 C-14.7098381 129.21157841 -16.04619895 132.28286829 -17.39160156 135.35058594 C-17.86694336 136.44661133 -18.34228516 137.54263672 -18.83203125 138.671875 C-19.25202393 139.6319043 -19.6720166 140.59193359 -20.10473633 141.58105469 C-21.17354773 144.03903141 -21.17354773 144.03903141 -21 147 C-4.17 147 12.66 147 30 147 C29.30793145 143.53965724 28.74387682 141.05998574 27.43701172 137.92260742 C27.11932831 137.15377731 26.8016449 136.3849472 26.47433472 135.59281921 C26.12960114 134.77199356 25.78486755 133.95116791 25.4296875 133.10546875 C25.0703714 132.24045242 24.7110553 131.3754361 24.34085083 130.48420715 C23.57800812 128.65011901 22.81296994 126.8169427 22.04589844 124.98461914 C20.89576004 122.23709294 19.75192677 119.48701656 18.609375 116.73632812 C14.18541527 106.10722637 9.65906422 95.52814172 5 85 C4.67 85 4.34 85 4 85 Z " fill="#706F70" transform="translate(1482,74)"/>
<path d="M0 0 C16.5 0 33 0 50 0 C50 53.13 50 106.26 50 161 C76.4 161 102.8 161 130 161 C130 175.85 130 190.7 130 206 C87.1 206 44.2 206 0 206 C0 138.02 0 70.04 0 0 Z " fill="#706F70" transform="translate(1247,81)"/>
<path d="M0 0 C6.33115807 -0.12789222 12.66197717 -0.21480336 18.99414062 -0.2746582 C21.14335579 -0.29963783 23.29248745 -0.33363366 25.44140625 -0.37719727 C51.25803034 -0.8870516 51.25803034 -0.8870516 59.99462891 6.74169922 C64.92341454 11.8761707 67.1517567 17.60844008 67.4375 24.6875 C67.11843267 35.32307778 63.5503387 44.4496613 56 52 C42.4469199 63.85562975 25.88028502 62.5130186 9 62 C8.95399658 62.81388184 8.90799316 63.62776367 8.8605957 64.46630859 C8.45346773 71.3076663 7.62001168 77.99216913 6.5 84.75 C6.36940186 85.54841309 6.23880371 86.34682617 6.10424805 87.16943359 C5.12832851 92.87167149 5.12832851 92.87167149 4 94 C2.58429877 94.08651611 1.164405 94.10704904 -0.25390625 94.09765625 C-1.10791016 94.09443359 -1.96191406 94.09121094 -2.84179688 94.08789062 C-3.73962891 94.07951172 -4.63746094 94.07113281 -5.5625 94.0625 C-6.46419922 94.05798828 -7.36589844 94.05347656 -8.29492188 94.04882812 C-10.53001314 94.03700225 -12.76497437 94.0205222 -15 94 C-13.85801829 82.43355384 -12.27697541 71.03253291 -10.19924927 59.59790039 C-9.41641291 55.2887641 -8.65295408 50.97617592 -7.88671875 46.6640625 C-7.73029404 45.78667419 -7.57386932 44.90928589 -7.41270447 44.00531006 C-5.72540464 34.51530148 -4.13696542 25.00927898 -2.5625 15.5 C-2.43121704 14.7082135 -2.29993408 13.916427 -2.16467285 13.10064697 C-1.44082876 8.73414038 -0.71922581 4.36727009 0 0 Z " fill="#FDFEFE" transform="translate(1171,378)"/>
<path d="M0 0 C1.5631897 0.00785522 1.5631897 0.00785522 3.15795898 0.01586914 C4.28266602 0.0190918 5.40737305 0.02231445 6.56616211 0.02563477 C7.75016602 0.03401367 8.93416992 0.04239258 10.15405273 0.05102539 C11.34192383 0.05553711 12.52979492 0.06004883 13.75366211 0.06469727 C16.69967499 0.07652864 19.64558954 0.09301252 22.59155273 0.11352539 C25.08248718 8.52272955 26.77055848 16.98160055 28.27905273 25.61352539 C28.79348315 28.51761752 29.3114753 31.42106965 29.82983398 34.32446289 C29.96635376 35.09152557 30.10287354 35.85858826 30.24353027 36.64889526 C31.37376366 42.97068557 32.56033891 49.28105315 33.75952148 55.59008789 C34.12912579 57.5425511 34.49867347 59.49502503 34.86816406 61.44750977 C35.41368223 64.32912751 35.96112566 67.21030497 36.51498413 70.09033203 C37.03320838 72.78711523 37.54355672 75.48528825 38.05249023 78.18383789 C38.20844162 78.98359039 38.36439301 79.7833429 38.52507019 80.60733032 C38.66608658 81.36234833 38.80710297 82.11736633 38.95239258 82.89526367 C39.07641449 83.54407501 39.2004364 84.19288635 39.32821655 84.86135864 C39.68652693 87.92578642 39.59155273 91.02822088 39.59155273 94.11352539 C32.99155273 94.11352539 26.39155273 94.11352539 19.59155273 94.11352539 C17.34226325 86.24101221 16.59155273 81.3611492 16.59155273 73.11352539 C-0.73344727 73.60852539 -0.73344727 73.60852539 -18.40844727 74.11352539 C-21.70844727 80.71352539 -25.00844727 87.31352539 -28.40844727 94.11352539 C-35.66844727 94.11352539 -42.92844727 94.11352539 -50.40844727 94.11352539 C-48.16040126 87.36938737 -48.16040126 87.36938737 -46.42553711 84.15356445 C-46.03959381 83.43070251 -45.65365051 82.70784058 -45.25601196 81.96307373 C-44.83967499 81.19287903 -44.42333801 80.42268433 -43.99438477 79.62915039 C-43.08662993 77.92730495 -42.18010312 76.22480404 -41.2746582 74.52172852 C-40.56714417 73.19202026 -40.56714417 73.19202026 -39.84533691 71.83544922 C-37.46155541 67.31981249 -35.14094664 62.77234474 -32.82250977 58.22290039 C-32.35227386 57.30091858 -31.88203796 56.37893677 -31.39755249 55.42901611 C-30.43363042 53.53819325 -29.47008165 51.64718004 -28.50689697 49.75598145 C-21.72253738 36.43794154 -14.93800799 23.11975542 -8.03344727 9.86352539 C-7.55858887 8.94925781 -7.08373047 8.03499023 -6.59448242 7.09301758 C-6.17473145 6.29025391 -5.75498047 5.48749023 -5.32250977 4.66040039 C-4.97140137 3.98847656 -4.62029297 3.31655273 -4.25854492 2.62426758 C-2.93000239 0.26326208 -2.84811128 0.13424954 0 0 Z " fill="#FDFEFE" transform="translate(1286.408447265625,377.886474609375)"/>
<path d="M0 0 C1.1702623 0.00222061 2.3405246 0.00444122 3.54624939 0.00672913 C4.19013107 0.0065831 4.83401276 0.00643707 5.49740601 0.00628662 C7.63473327 0.00698567 9.77197438 0.01477761 11.9092865 0.02259827 C13.3875931 0.02446248 14.86590032 0.02588637 16.34420776 0.02688599 C20.24211827 0.03071093 24.13999174 0.040541 28.03788757 0.05158997 C32.01259358 0.0618046 35.98730554 0.06638372 39.96202087 0.07142639 C47.76607425 0.0821633 55.57009707 0.09923942 63.37413025 0.12025452 C63.23177568 1.84971105 63.08508642 3.57881106 62.93663025 5.30775452 C62.81481384 6.75214905 62.81481384 6.75214905 62.6905365 8.22572327 C62.40063664 10.8777701 61.8973376 13.50421774 61.37413025 16.12025452 C45.86413025 16.45025452 30.35413025 16.78025452 14.37413025 17.12025452 C13.38413025 23.39025452 12.39413025 29.66025452 11.37413025 36.12025452 C11.04413025 36.78025452 10.71413025 37.44025452 10.37413025 38.12025452 C24.56413025 38.12025452 38.75413025 38.12025452 53.37413025 38.12025452 C52.37413025 50.12025452 52.37413025 50.12025452 51.37413025 54.12025452 C36.85413025 54.12025452 22.33413025 54.12025452 7.37413025 54.12025452 C6.71413025 60.06025452 6.05413025 66.00025452 5.37413025 72.12025452 C5.04413025 73.77025452 4.71413025 75.42025452 4.37413025 77.12025452 C19.55413025 77.12025452 34.73413025 77.12025452 50.37413025 77.12025452 C49.37413025 90.12025452 49.37413025 90.12025452 48.37413025 94.12025452 C26.26413025 94.12025452 4.15413025 94.12025452 -18.62586975 94.12025452 C-16.37555057 79.49317987 -16.37555057 79.49317987 -15.42079163 73.59266663 C-15.31642288 72.94680099 -15.21205414 72.30093536 -15.10452271 71.63549805 C-14.76837583 69.55611893 -14.43152004 67.47685544 -14.09461975 65.39759827 C-13.85561106 63.9203549 -13.61663884 62.44310563 -13.37770081 60.96585083 C-12.88049615 57.89251207 -12.38295561 54.81922795 -11.88514709 51.74598694 C-11.25261369 47.8409356 -10.62077638 43.93577203 -9.98917389 40.03057003 C-9.49692636 36.98732891 -9.00438403 33.94413556 -8.51174927 30.90095711 C-8.27887908 29.46231289 -8.0460786 28.0236574 -7.81335449 26.58498955 C-7.28231053 23.30276891 -6.7497106 20.0208294 -6.21400452 16.73936462 C-5.82308984 14.33385601 -5.43812299 11.92737299 -5.05921936 9.51994324 C-4.79733826 7.88072403 -4.79733826 7.88072403 -4.53016663 6.20838928 C-4.37898376 5.24691483 -4.2278009 4.28544037 -4.07203674 3.29483032 C-3.42591232 0.14568089 -3.27866191 0.15014983 0 0 Z " fill="#FDFEFE" transform="translate(1472.6258697509766,377.87974548339844)"/>
<path d="M0 0 C5.03143824 5.16742306 7.17746866 10.33531383 7.1875 17.4375 C7.0946875 19.6959375 7.0946875 19.6959375 7 22 C0.73 22 -5.54 22 -12 22 C-12.66 19.36 -13.32 16.72 -14 14 C-15.93922862 11.38625708 -16.83669136 11.05443621 -20 10 C-27.72978914 9.31247111 -34.20422287 9.01459323 -40.64453125 13.7109375 C-42.60070415 15.57127484 -42.98687915 16.67985136 -43.09765625 19.3828125 C-43.08605469 20.28773438 -43.07445312 21.19265625 -43.0625 22.125 C-43.05347656 23.03507812 -43.04445313 23.94515625 -43.03515625 24.8828125 C-43.02355469 25.58148438 -43.01195312 26.28015625 -43 27 C-38.25406972 28.67206155 -33.5070328 30.16963273 -28.625 31.39453125 C-27.24054688 31.74547852 -27.24054688 31.74547852 -25.828125 32.10351562 C-23.94544012 32.57548704 -22.05996635 33.03647211 -20.171875 33.48632812 C-11.76581486 35.65241485 -3.75398771 39.39361967 1 47 C3.97736655 53.69907475 3.65466323 59.61122179 1.5 66.4375 C-2.36622998 76.12992378 -8.66175665 81.61966001 -18.078125 85.84765625 C-29.04667908 90.17348975 -44.8128883 91.4535359 -56 87 C-63.24591497 83.56887839 -68.82499156 79.71946663 -71.73828125 72.05859375 C-73.09389485 67.34622267 -73.25686048 62.88034907 -73 58 C-72 57 -72 57 -70.14233398 56.88647461 C-68.95619507 56.89432983 -68.95619507 56.89432983 -67.74609375 56.90234375 C-66.46508789 56.90717773 -66.46508789 56.90717773 -65.15820312 56.91210938 C-64.26037109 56.92048828 -63.36253906 56.92886719 -62.4375 56.9375 C-61.53580078 56.94201172 -60.63410156 56.94652344 -59.70507812 56.95117188 C-57.46998686 56.96299775 -55.23502563 56.9794778 -53 57 C-52.91363281 57.67546875 -52.82726563 58.3509375 -52.73828125 59.046875 C-51.88017279 64.8612431 -51.88017279 64.8612431 -48.5625 69.5625 C-42.92888934 72.72281817 -37.3112969 72.57873107 -31 72 C-26.34049163 70.62995533 -22.13134846 68.81894427 -19 65 C-18.24648391 63.1426838 -18.24648391 63.1426838 -18 61.125 C-17.814375 60.13886719 -17.814375 60.13886719 -17.625 59.1328125 C-18.09429544 56.46369467 -19.20618424 54.97496118 -21.18994141 53.15576172 C-25.0841068 50.66925255 -29.7285915 49.97885419 -34.1875 49 C-53.95011847 44.57687654 -53.95011847 44.57687654 -60.0625 36.8125 C-60.61035156 36.13832031 -61.15820312 35.46414063 -61.72265625 34.76953125 C-65.45903981 29.59344027 -64.55801078 23.11216455 -64 17 C-61.56735368 8.65625047 -55.83688092 1.84565 -48.390625 -2.53515625 C-33.00279273 -9.9899959 -13.97995531 -11.13095968 0 0 Z " fill="#FDFEFE" transform="translate(1131,384)"/>
<path d="M0 0 C10.27977879 -0.4598458 20.27412426 2.35557839 28.64453125 8.41796875 C33.82312125 13.15804911 38.2971552 19.96954324 38.77734375 27.0859375 C38.71223958 29.78776042 38.64713542 32.48958333 38.58203125 35.19140625 C32.31203125 35.19140625 26.04203125 35.19140625 19.58203125 35.19140625 C19.02515625 33.45890625 18.46828125 31.72640625 17.89453125 29.94140625 C15.91091949 24.44941354 13.83635532 21.81856828 8.58203125 19.19140625 C-0.47164771 18.33958162 -7.94169969 18.7114886 -15.41796875 24.19140625 C-22.31313401 30.04553676 -27.7722992 40.0498557 -28.5949707 49.14916992 C-28.66179034 51.55920234 -28.70288515 53.96809961 -28.73046875 56.37890625 C-28.77397461 57.61737305 -28.77397461 57.61737305 -28.81835938 58.88085938 C-28.87862891 64.76409315 -27.85845982 69.33109876 -24.41796875 74.19140625 C-18.24366321 79.10564944 -13.06430929 79.79068403 -5.41796875 79.19140625 C1.03758018 77.9567956 6.29860472 75.23563604 10.58203125 70.19140625 C11.90203125 67.88140625 13.22203125 65.57140625 14.58203125 63.19140625 C21.18203125 63.19140625 27.78203125 63.19140625 34.58203125 63.19140625 C32.0727479 70.1401909 29.4207274 75.61002651 24.58203125 81.19140625 C24.00710938 81.87203125 23.4321875 82.55265625 22.83984375 83.25390625 C15.00999955 91.83099699 4.05982571 96.87072676 -7.53125 97.52734375 C-19.84290471 97.79080303 -30.13780504 95.94127489 -39.41796875 87.19140625 C-47.46481221 79.03254176 -49.78734237 68.40186778 -49.91796875 57.25390625 C-49.71471018 41.24687426 -43.74307778 25.86454219 -32.64453125 14.1875 C-23.32704658 5.83445672 -12.40015711 0.98159564 0 0 Z " fill="#FDFEFE" transform="translate(1398.41796875,375.80859375)"/>
<path d="M0 0 C3.00056084 -0.08166849 5.9988539 -0.14081551 9 -0.1875 C9.83917969 -0.21263672 10.67835937 -0.23777344 11.54296875 -0.26367188 C18.03711683 -0.33918522 24.0402724 0.18065474 28.9765625 4.8828125 C31.3422393 9.77669351 30.57346272 15.31147089 28.875 20.3125 C25.0036132 25.86148774 20.60986032 28.80189456 14 30 C10.68122948 30.22102114 7.38661789 30.190724 4.0625 30.125 C3.18787109 30.11597656 2.31324219 30.10695313 1.41210938 30.09765625 C-0.72538064 30.0742957 -2.86272786 30.03843247 -5 30 C-3.51659041 19.96517043 -1.79340033 9.98326182 0 0 Z " fill="#9FC4DE" transform="translate(1188,394)"/>
<path d="M0 0 C0.33 0 0.66 0 1 0 C1.71469277 5.07165754 2.42670501 10.14368142 3.13623047 15.21606445 C3.37800549 16.94175395 3.62051404 18.66734084 3.86376953 20.39282227 C4.21319157 22.87229256 4.55997828 25.35211928 4.90625 27.83203125 C5.0156189 28.60400345 5.12498779 29.37597565 5.2376709 30.17134094 C5.65034057 33.14162846 6 35.99699529 6 39 C-1.92 39 -9.84 39 -18 39 C-14 30.125 -14 30.125 -12.67382812 27.18286133 C-10.65352708 22.69459851 -8.64303501 18.20242916 -6.65625 13.69921875 C-6.29273438 12.87599121 -5.92921875 12.05276367 -5.5546875 11.20458984 C-4.85998655 9.6289695 -4.16722816 8.05249102 -3.4765625 6.47509766 C-1.11000561 1.11000561 -1.11000561 1.11000561 0 0 Z " fill="#9FC4DE" transform="translate(1294,396)"/>
</svg>
