<svg version="1.1" xmlns="http://www.w3.org/2000/svg" width="800" height="254">
<path d="M0 0 C1.03653214 -0.0066568 2.07306427 -0.0133136 3.14100647 -0.02017212 C5.32535028 -0.03026242 7.5097247 -0.03499027 9.6940918 -0.03466797 C13.02119003 -0.03904413 16.34696389 -0.0754117 19.67382812 -0.11328125 C21.80338091 -0.11914969 23.93293996 -0.1231189 26.0625 -0.125 C27.04919174 -0.13937103 28.03588348 -0.15374207 29.05247498 -0.16854858 C36.37848557 -0.12047976 41.66364281 1.44285715 47.3046875 6.1953125 C47.83449219 6.81921875 48.36429687 7.443125 48.91015625 8.0859375 C49.45285156 8.69953125 49.99554688 9.313125 50.5546875 9.9453125 C55.29224257 17.2855244 55.4927275 23.83083843 55.28515625 32.3359375 C55.26485352 33.92728516 55.26485352 33.92728516 55.24414062 35.55078125 C55.20906504 38.14637437 55.15991469 40.74087817 55.09765625 43.3359375 C56.11085938 43.42875 57.1240625 43.5215625 58.16796875 43.6171875 C69.97259321 45.77628382 80.13493992 54.59376113 87.05859375 64 C96.01914816 77.42192749 99.40332346 91.84922171 96.44921875 107.84765625 C91.98961597 123.64684728 82.85895854 135.41043947 68.85546875 143.8359375 C56.4118765 150.60412365 44.35974211 151.68972482 30.45678711 151.65161133 C28.03649302 151.64843925 25.6174105 151.67202259 23.19726562 151.69726562 C12.0398263 151.74441944 3.30718037 151.22116377 -5.109375 143.30859375 C-10.09652168 137.82164588 -13.0413511 132.49626789 -13 125.01171875 C-12.99677734 123.98369141 -12.99355469 122.95566406 -12.99023438 121.89648438 C-12.97766602 120.28870117 -12.97766602 120.28870117 -12.96484375 118.6484375 C-12.96033203 117.56498047 -12.95582031 116.48152344 -12.95117188 115.36523438 C-12.93938118 112.68874665 -12.92292438 110.01236973 -12.90234375 107.3359375 C-13.56983643 107.14620361 -14.2373291 106.95646973 -14.92504883 106.76098633 C-30.90775718 102.1137177 -40.68550727 93.31669693 -49.29296875 79.02734375 C-55.48604023 67.17269573 -56.27395606 51.25426616 -53.09765625 38.33203125 C-51.9489905 35.1038844 -50.61641526 32.30136169 -48.90234375 29.3359375 C-48.27070312 28.23121094 -47.6390625 27.12648438 -46.98828125 25.98828125 C-39.40037897 13.60662261 -27.04357038 4.6861935 -13.04789734 0.76921082 C-8.74257162 -0.10020711 -4.37706238 0.00985298 0 0 Z" fill="#EE8680" transform="translate(66.90234375,11.6640625)"/>
<path d="M0 0 C0.88501745 -0.00367669 1.7700349 -0.00735338 2.68187106 -0.01114148 C5.66516794 -0.02220726 8.64843002 -0.02602702 11.63174438 -0.02983093 C13.7634543 -0.0360933 15.89516312 -0.04273989 18.02687073 -0.04974365 C23.83055099 -0.06717219 29.634223 -0.07771002 35.43792295 -0.08594918 C39.0605315 -0.09109439 42.68313745 -0.09717027 46.30574417 -0.10346031 C57.63052548 -0.12251578 68.95530024 -0.13674733 80.2800945 -0.14507228 C93.37080809 -0.15485328 106.46135297 -0.1811939 119.55200708 -0.22157317 C129.65903412 -0.25168409 139.76601266 -0.26653629 149.87308371 -0.26985329 C155.91511295 -0.27220913 161.95696203 -0.28123902 167.99894333 -0.30631447 C173.68048086 -0.32951294 179.36171856 -0.33386162 185.04329109 -0.32355309 C187.13149701 -0.32305564 189.21971728 -0.32943713 191.30787849 -0.34310913 C194.15312611 -0.36069961 196.99728258 -0.35378551 199.8425293 -0.34057617 C201.08950956 -0.35703004 201.08950956 -0.35703004 202.36168134 -0.37381631 C205.94533795 -0.33349392 208.11663436 -0.16116661 211.07187843 1.95000935 C214.65900197 7.28843475 212.19014686 15.81798063 211.30606079 21.86982727 C211.11341141 23.22629616 211.11341141 23.22629616 210.91687012 24.61016846 C210.64552064 26.51067096 210.37139853 28.41077947 210.09463501 30.3105011 C209.67413741 33.20355379 209.26488311 36.09804128 208.85684204 38.99287415 C208.59058566 40.84778825 208.32368041 42.70260936 208.05606079 44.55732727 C207.93514069 45.41480057 207.81422058 46.27227386 207.68963623 47.1557312 C205.67105571 60.86023747 205.67105571 60.86023747 201.54824829 64.14717102 C198.58116981 64.44221027 195.82392046 64.55162383 192.85562134 64.52812195 C191.95679324 64.53280192 191.05796515 64.53748189 190.13189983 64.54230368 C187.10777395 64.55430872 184.08409662 64.54477494 181.05996704 64.53535461 C178.89692926 64.53941787 176.73389356 64.54475835 174.57086182 64.55128479 C168.68667667 64.56499347 162.80264884 64.55964507 156.91846085 64.55014753 C150.76990576 64.54256932 144.62136443 64.54959142 138.47280884 64.55430603 C128.14604262 64.55976895 117.81934069 64.55255789 107.49258423 64.5382843 C95.54159359 64.5219568 83.59075647 64.52724493 71.63976955 64.54376352 C61.39175061 64.55736309 51.14377796 64.55930553 40.89575291 64.55144751 C34.76942489 64.54676259 28.64316912 64.54616862 22.5168457 64.55605698 C16.75816003 64.56470213 10.99967291 64.55874962 5.24100876 64.54137421 C3.1233694 64.53739624 1.00571342 64.53856566 -1.1119194 64.5451622 C-3.99454932 64.55331607 -6.87653621 64.54313086 -9.75912476 64.52812195 C-10.6043485 64.53481411 -11.44957224 64.54150628 -12.32040882 64.54840124 C-18.00615713 64.49066897 -18.00615713 64.49066897 -20.1782198 62.81627905 C-22.27039277 60.07424904 -21.58576542 57.57919765 -21.31503296 54.22138977 C-21.25946732 53.52180649 -21.20390167 52.82222321 -21.14665222 52.10144043 C-20.43698112 43.87802173 -19.28254445 35.70846978 -18.03256226 27.55220032 C-17.6342227 24.926522 -17.2606251 22.29799283 -16.88729858 19.6686554 C-16.63293221 17.98027875 -16.37712682 16.29211812 -16.11972046 14.60420227 C-15.95852974 13.43858513 -15.95852974 13.43858513 -15.79408264 12.24942017 C-15.03847134 7.52638454 -13.93250706 4.65063518 -10.45175171 1.14717102 C-7.18836103 -0.48452432 -3.5865969 -0.00079116 0 0 Z" fill="#9EC3DE" transform="translate(435.4517517089844,148.8528289794922)"/>
<path d="M0 0 C1.03653214 -0.0066568 2.07306427 -0.0133136 3.14100647 -0.02017212 C5.32535028 -0.03026242 7.5097247 -0.03499027 9.6940918 -0.03466797 C13.02119003 -0.03904413 16.34696389 -0.0754117 19.67382812 -0.11328125 C21.80338091 -0.11914969 23.93293996 -0.1231189 26.0625 -0.125 C27.04919174 -0.13937103 28.03588348 -0.15374207 29.05247498 -0.16854858 C36.37848557 -0.12047976 41.66364281 1.44285715 47.3046875 6.1953125 C47.83449219 6.81921875 48.36429687 7.443125 48.91015625 8.0859375 C49.45285156 8.69953125 49.99554688 9.313125 50.5546875 9.9453125 C55.19428953 17.13375919 55.49827277 23.50799961 55.28515625 31.8359375 C55.26485352 33.35574219 55.26485352 33.35574219 55.24414062 34.90625 C55.20908688 37.38338154 55.15995389 39.85936677 55.09765625 42.3359375 C52.21887823 43.16295347 49.70624972 43.44669303 46.71557617 43.40185547 C45.85755905 43.39209686 44.99954193 43.38233826 44.11552429 43.37228394 C43.19568253 43.35771149 42.27584076 43.34313904 41.328125 43.328125 C39.36784376 43.3106043 37.40755696 43.29369644 35.44726562 43.27734375 C32.36629797 43.24642857 29.2856096 43.21094433 26.20483398 43.16455078 C23.22506292 43.12204744 20.24561744 43.09872305 17.265625 43.078125 C16.35185593 43.05950409 15.43808685 43.04088318 14.49662781 43.021698 C6.2404848 42.98882199 0.7586599 45.21531985 -5.39453125 50.7890625 C-9.82144664 55.33066482 -10.99187496 59.95102486 -11.10766602 66.10449219 C-11.12761124 67.04516541 -11.14755646 67.98583862 -11.16810608 68.95501709 C-11.18481857 69.96243958 -11.20153107 70.96986206 -11.21875 72.0078125 C-11.2395311 73.04536682 -11.26031219 74.08292114 -11.28172302 75.1519165 C-11.34705783 78.46319008 -11.40602892 81.77454232 -11.46484375 85.0859375 C-11.50804424 87.33203935 -11.55165902 89.57813328 -11.59570312 91.82421875 C-11.70272278 97.32804207 -11.80451897 102.83194348 -11.90234375 108.3359375 C-13.9782071 107.55906794 -16.05203614 106.77676116 -18.125 105.9921875 C-19.28008057 105.55712891 -20.43516113 105.12207031 -21.62524414 104.67382812 C-25.7519611 102.9890774 -29.30409636 100.943001 -32.90234375 98.3359375 C-33.87171875 97.6553125 -34.84109375 96.9746875 -35.83984375 96.2734375 C-44.97086735 88.36822254 -53.01570954 75.97503418 -54.1418457 63.73217773 C-54.69949345 51.55807572 -55.14994186 40.14457555 -48.90234375 29.3359375 C-48.27070312 28.23121094 -47.6390625 27.12648438 -46.98828125 25.98828125 C-39.40037897 13.60662261 -27.04357038 4.6861935 -13.04789734 0.76921082 C-8.74257162 -0.10020711 -4.37706238 0.00985298 0 0 Z" fill="#9DC2DD" transform="translate(66.90234375,11.6640625)"/>
<path d="M0 0 C3.65608387 0.55456815 3.65608387 0.55456815 5.1595459 2.5018158 C5.46976685 3.14953445 5.77998779 3.79725311 6.09960938 4.46459961 C6.46141296 5.20237137 6.82321655 5.94014313 7.19598389 6.70027161 C7.5747467 7.50945541 7.95350952 8.31863922 8.34375 9.15234375 C8.95274139 10.41041084 8.95274139 10.41041084 9.57403564 11.69389343 C10.89655707 14.43534059 12.19837591 17.18607773 13.5 19.9375 C14.40419098 21.82197158 15.30946815 23.70592237 16.21582031 25.58935547 C21.65052519 36.91403997 26.96895388 48.29189402 32.15917969 59.73071289 C35.3608116 66.75366622 38.84625716 73.53958064 42.671875 80.2421875 C44 83 44 83 44 87 C36.74 87 29.48 87 22 87 C20.35 83.37 18.7 79.74 17 76 C6.77 75.67 -3.46 75.34 -14 75 C-15.32 78.96 -16.64 82.92 -18 87 C-27.76150988 87.02312446 -37.5230133 87.04091561 -47.28454494 87.05181217 C-51.81674094 87.05704078 -56.34891827 87.06413801 -60.88110352 87.07543945 C-65.2512283 87.08626914 -69.62133508 87.09227701 -73.99147224 87.09487724 C-75.66250963 87.09673135 -77.33354597 87.10035168 -79.00457573 87.10573006 C-81.33697551 87.11294159 -83.66929993 87.1139909 -86.00170898 87.11352539 C-86.6994191 87.11712067 -87.39712921 87.12071594 -88.11598206 87.12442017 C-92.88594784 87.11405216 -92.88594784 87.11405216 -94 86 C-94.09507821 83.41360962 -94.12556376 80.8540144 -94.11352539 78.26733398 C-94.11367142 77.4576416 -94.11381744 76.64794922 -94.1139679 75.8137207 C-94.11326854 73.12448492 -94.1054751 70.43531751 -94.09765625 67.74609375 C-94.09579215 65.88664284 -94.09436821 64.02719144 -94.09336853 62.16773987 C-94.08954271 57.26370904 -94.07971188 52.35970764 -94.06866455 47.45568848 C-94.05845181 42.45548908 -94.05387121 37.45528494 -94.04882812 32.45507812 C-94.03808967 22.63670372 -94.02049235 12.8183589 -94 3 C-86.74 3 -79.48 3 -72 3 C-72 24.12 -72 45.24 -72 67 C-61.44 67 -50.88 67 -40 67 C-39.505 74.92 -39.505 74.92 -39 83 C-38.34644531 81.54722656 -37.69289063 80.09445313 -37.01953125 78.59765625 C-33.70866381 71.31514144 -30.27416031 64.09238569 -26.8414917 56.86676025 C-24.85712685 52.68948701 -22.8757761 48.51078498 -20.89453125 44.33203125 C-20.49057129 43.48010193 -20.08661133 42.62817261 -19.67041016 41.75042725 C-15.38856058 32.71648316 -11.12936625 23.6719127 -6.875 14.625 C-6.52376068 13.87813934 -6.17252136 13.13127869 -5.81063843 12.36178589 C-3.87307461 8.24151205 -1.93619897 4.12091542 0 0 Z M2 37 C0.66087415 40.12254943 -0.67030658 43.24842358 -2 46.375 C-2.57234375 47.70917969 -2.57234375 47.70917969 -3.15625 49.0703125 C-3.5171875 49.92109375 -3.878125 50.771875 -4.25 51.6484375 C-4.75273438 52.82672119 -4.75273438 52.82672119 -5.265625 54.02880859 C-6.11637101 55.96176935 -6.11637101 55.96176935 -6 58 C-0.06 58 5.88 58 12 58 C10.71660748 54.68407189 9.42378972 51.37239145 8.125 48.0625 C7.57779297 46.64420898 7.57779297 46.64420898 7.01953125 45.19726562 C6.66503906 44.29814453 6.31054688 43.39902344 5.9453125 42.47265625 C5.62062988 41.64000244 5.29594727 40.80734863 4.96142578 39.94946289 C4.15918916 37.82777329 4.15918916 37.82777329 2 37 Z" fill="#FDFDFD" transform="translate(604,41)"/>
<path d="M0 0 C0.886875 0.70125 1.77375 1.4025 2.6875 2.125 C3.52861328 2.77082031 3.52861328 2.77082031 4.38671875 3.4296875 C13.75119724 10.94564637 18.26808961 19.6863136 20.2578125 31.515625 C21.65196633 44.74525497 19.03207294 56.49248643 11.16015625 67.203125 C5.01713979 74.77710295 -3.47242715 81.59005827 -13.3125 83.125 C-25.77060471 84.23567798 -36.60286707 83.51507145 -47 75.9375 C-56.15899509 68.22035029 -64.40071424 58.54954088 -65.48950195 46.10131836 C-65.98394861 28.86266211 -62.92930637 17.33907748 -51 4.3125 C-37.19928431 -8.8074629 -15.94744213 -9.02685404 0 0 Z M-37.5 21.1875 C-42.24759208 27.08149227 -44.11324086 34.65141863 -43.3125 42.125 C-41.94140957 49.62276477 -39.20775753 55.17677179 -33.3125 60.125 C-28.29759319 63.30873752 -23.42875242 63.52482588 -17.640625 62.69921875 C-12.05088278 61.32054072 -8.40678179 57.81977237 -5.3125 53.125 C-1.51489736 45.52979471 -1.06070315 37.5569042 -2.96875 29.27734375 C-5.02275762 23.40748577 -8.0261634 19.44889146 -13.3125 16.125 C-22.17341481 13.17136173 -30.98227198 14.46361513 -37.5 21.1875 Z" fill="#FDFDFD" transform="translate(482.3125,46.875)"/>
<path d="M0 0 C3.75924323 2.66236815 6.89200671 5.60845097 10 9 C10.66902344 9.72445312 11.33804688 10.44890625 12.02734375 11.1953125 C19.44848459 19.95006216 21.33641844 28.3705987 21.4375 39.625 C21.44773193 40.50768555 21.45796387 41.39037109 21.46850586 42.29980469 C21.30239233 54.73857162 16.19050119 63.69410469 7.875 72.6875 C-1.31108033 81.59285122 -11.54201043 84.35204152 -23.93554688 84.38061523 C-36.39410382 84.13249145 -44.48307691 78.79068133 -53 70 C-53.598125 69.39929688 -54.19625 68.79859375 -54.8125 68.1796875 C-63.24680514 59.11280947 -65.27130961 47.46485996 -64.8828125 35.34375 C-63.38155471 21.49541284 -57.13075226 11.09216943 -46.63183594 2.21679688 C-42.53002768 -0.84176272 -37.86373979 -2.55699286 -33 -4 C-32.36835938 -4.19464844 -31.73671875 -4.38929687 -31.0859375 -4.58984375 C-20.3083206 -6.70903808 -9.69963685 -5.03770486 0 0 Z M-35.6875 20.76953125 C-41.07828644 27.54689017 -42.57725502 33.93702825 -42.44921875 42.53515625 C-41.56454688 49.35866885 -38.62600155 55.66487863 -33.4609375 60.2578125 C-28.20105974 63.981472 -23.69143692 64.36466165 -17.45703125 63.5234375 C-11.34630629 62.22162964 -8.17097665 59.60889526 -4.625 54.5 C-0.29002502 47.73094816 -0.3244941 40.89324015 -1 33 C-2.8534663 26.42163514 -6.09908996 20.71686512 -12.0625 17.1875 C-19.68551348 14.31862396 -29.852625 14.65101649 -35.6875 20.76953125 Z" fill="#FDFDFD" transform="translate(393,46)"/>
<path d="M0 0 C1.30639183 -0.00472824 1.30639183 -0.00472824 2.63917542 -0.009552 C3.5715654 -0.00752777 4.50395538 -0.00550354 5.46459961 -0.00341797 C6.91037636 -0.00485306 6.91037636 -0.00485306 8.38536072 -0.00631714 C10.42031927 -0.00699691 12.45528 -0.00515676 14.49023438 -0.00097656 C17.60869194 0.00438036 20.72700586 -0.00093143 23.84545898 -0.00732422 C25.82267284 -0.00666352 27.79988661 -0.00538252 29.77709961 -0.00341797 C31.17872093 -0.00645432 31.17872093 -0.00645432 32.60865784 -0.009552 C33.91032143 -0.00482376 33.91032143 -0.00482376 35.23828125 0 C36.00120987 0.00079559 36.76413849 0.00159119 37.55018616 0.00241089 C39.55444336 0.12939453 39.55444336 0.12939453 42.55444336 1.12939453 C42.68204436 7.4971762 42.76912742 13.86462383 42.82910156 20.23339844 C42.85412375 22.39628419 42.88815245 24.55908642 42.93164062 26.72167969 C42.99283543 29.84477435 43.02077679 32.96674366 43.04272461 36.09033203 C43.06853104 37.04491302 43.09433746 37.99949402 43.1209259 38.98300171 C43.12409078 46.69457664 41.0620439 53.22938786 35.82783508 59.04916382 C29.01891558 65.5654386 21.24533975 66.5793413 12.21850586 66.45751953 C11.25794281 66.45564636 10.29737976 66.45377319 9.30770874 66.45184326 C7.29242442 66.44515866 5.27715227 66.43131645 3.26196289 66.41064453 C0.16792835 66.37927779 -2.92559702 66.36964734 -6.01977539 66.36376953 C-7.98202123 66.35460698 -9.94426187 66.34423361 -11.90649414 66.33251953 C-12.83352142 66.32826965 -13.76054871 66.32401978 -14.71566772 66.31964111 C-15.57060822 66.31003357 -16.42554871 66.30042603 -17.30639648 66.29052734 C-18.4360231 66.28028534 -18.4360231 66.28028534 -19.58847046 66.26983643 C-21.44555664 66.12939453 -21.44555664 66.12939453 -23.44555664 65.12939453 C-23.52186197 58.70653934 -23.57426343 52.28380184 -23.61035156 45.8605957 C-23.62540219 43.67728303 -23.64584739 41.49400042 -23.671875 39.31079102 C-23.70842182 36.16561447 -23.72532062 33.02083904 -23.73852539 29.87548828 C-23.75400925 28.90542343 -23.7694931 27.93535858 -23.78544617 26.93589783 C-23.78766008 17.9429397 -21.31751602 12.50187453 -15.21508789 5.85986328 C-10.67961521 1.42451141 -6.20497806 0.0064639 0 0 Z" fill="#38618A" transform="translate(78.445556640625,53.87060546875)"/>
<path d="M0 0 C-0.48982628 4.6702402 -2.31146478 6.9535743 -5.375 10.4375 C-6.28702127 11.49318332 -7.19710295 12.55054468 -8.10546875 13.609375 C-8.58032715 14.16044922 -9.05518555 14.71152344 -9.54443359 15.27929688 C-12.00397526 18.18685301 -14.34530962 21.18518229 -16.6875 24.1875 C-17.14664795 24.77474854 -17.6057959 25.36199707 -18.07885742 25.96704102 C-19.38772502 27.64328529 -20.6942158 29.3213532 -22 31 C-22.7425 31.95261719 -23.485 32.90523437 -24.25 33.88671875 C-25.83543985 35.92285824 -27.41903121 37.96038838 -29 40 C-26.29748029 44.88197108 -22.88041174 49.13094639 -19.4375 53.5 C-18.17684138 55.11048771 -16.91642633 56.72116612 -15.65625 58.33203125 C-14.72619141 59.51853271 -14.72619141 59.51853271 -13.77734375 60.72900391 C3 82.16620879 3 82.16620879 3 85 C-17.66223109 87.51183172 -17.66223109 87.51183172 -24.26660156 83.6875 C-28.17614183 80.15234271 -30.88186765 75.81341822 -33.56738281 71.31494141 C-35.99230939 67.39654437 -38.87008507 63.82787119 -41.6875 60.1875 C-42.67483731 58.87167863 -43.65824079 57.55289142 -44.63671875 56.23046875 C-45.25099731 55.40131958 -45.25099731 55.40131958 -45.87768555 54.55541992 C-46.95486477 53.06255309 -47.97884432 51.53173351 -49 50 C-49.33 61.55 -49.66 73.1 -50 85 C-56.93 85 -63.86 85 -71 85 C-71 57.28 -71 29.56 -71 1 C-64.07 1 -57.14 1 -50 1 C-49.67 11.56 -49.34 22.12 -49 33 C-47.2675 30.69 -45.535 28.38 -43.75 26 C-43.15517822 25.22841553 -42.56035645 24.45683105 -41.94750977 23.66186523 C-39.15052203 20.02295154 -36.59591859 16.41038017 -34.33984375 12.41015625 C-28.1065889 1.89052228 -28.1065889 1.89052228 -22.25927734 0.21435547 C-14.75354523 -0.85754979 -7.50713466 0 0 0 Z" fill="#FCFCFC" transform="translate(334,43)"/>
<path d="M0 0 C0 6.93 0 13.86 0 21 C-3.86656613 19.71114462 -7.5475401 18.38098396 -11.3125 16.875 C-16.50253395 14.97482364 -20.49965264 14.47615739 -26 15 C-28.22462241 16.82497972 -28.22462241 16.82497972 -28.3515625 19.44921875 C-28.25085703 22.04204781 -28.25085703 22.04204781 -26.5234375 23.51953125 C-25.81445312 23.94621094 -25.10546875 24.37289062 -24.375 24.8125 C-23.56289062 25.31136719 -22.75078125 25.81023437 -21.9140625 26.32421875 C-15.95944917 29.75401124 -15.95944917 29.75401124 -9.96240234 33.10864258 C-2.26025025 37.39499142 2.350564 41.96200172 6 50 C7.85923366 57.1775067 7.22242189 63.73732195 3.80859375 70.28515625 C-0.74701474 77.72060444 -6.46540459 82.79104589 -15 85 C-18.04666961 85.29970191 -21.06520678 85.33263223 -24.125 85.3125 C-25.3788147 85.30839111 -25.3788147 85.30839111 -26.65795898 85.30419922 C-42.96930705 85.03069295 -42.96930705 85.03069295 -48 80 C-49.16726533 72.42378728 -49.12529786 64.65093977 -49 57 C-47.89140625 57.49371094 -46.7828125 57.98742187 -45.640625 58.49609375 C-44.17715743 59.14339671 -42.71361165 59.79052288 -41.25 60.4375 C-40.15558594 60.92573242 -40.15558594 60.92573242 -39.0390625 61.42382812 C-38.33007812 61.73642578 -37.62109375 62.04902344 -36.890625 62.37109375 C-36.24125977 62.65911865 -35.59189453 62.94714355 -34.92285156 63.24389648 C-29.32657678 65.44446314 -23.66497662 65.99936623 -18 63.875 C-15.72227355 62.10782718 -15.72227355 62.10782718 -15.4375 59.0625 C-16.14449044 55.21332981 -17.0288195 54.52758279 -20 52 C-22.85906507 50.15032143 -25.80510651 48.45852894 -28.75 46.75 C-38.37870665 40.9881053 -46.86571234 35.36909314 -50 24 C-51.34242951 16.7380956 -48.99648089 11.04242468 -45 5 C-32.74377414 -8.11131138 -15.30120808 -5.04782122 0 0 Z" fill="#FDFDFD" transform="translate(248,45)"/>
<path d="M0 0 C3.3956697 -0.08745946 6.79104773 -0.14054444 10.1875 -0.1875 C11.14720703 -0.21263672 12.10691406 -0.23777344 13.09570312 -0.26367188 C22.23391556 -0.35853221 22.23391556 -0.35853221 26 3 C28.48473823 6.61282413 28.19205612 9.55417502 27.60546875 13.75 C26.38080748 18.3009993 23.51307012 20.88690667 19.75390625 23.65234375 C16.35388197 25.31618542 13.95212449 25.30157953 10.1875 25.1875 C8.44533203 25.14689453 8.44533203 25.14689453 6.66796875 25.10546875 C5.34732422 25.05326172 5.34732422 25.05326172 4 25 C4.020625 26.2375 4.04125 27.475 4.0625 28.75 C4.06766681 31.6640825 3.93015558 34.20953327 3 37 C0.36 37 -2.28 37 -5 37 C-4.61794584 31.71156608 -4.18510853 26.50124967 -3.0625 21.3125 C-1.54765112 14.28496799 -0.83198851 7.13385892 0 0 Z" fill="#F8FAFC" transform="translate(480,163)"/>
<path d="M0 0 C0.90492188 0.02320313 1.80984375 0.04640625 2.7421875 0.0703125 C3.65226563 0.08835938 4.56234375 0.10640625 5.5 0.125 C6.19867187 0.14820313 6.89734375 0.17140625 7.6171875 0.1953125 C10.28220605 10.1567896 12.3466944 19.94331376 13.6171875 30.1953125 C13.9465955 32.52920323 14.27891317 34.86269036 14.6171875 37.1953125 C11.6471875 37.1953125 8.6771875 37.1953125 5.6171875 37.1953125 C5.2871875 34.8853125 4.9571875 32.5753125 4.6171875 30.1953125 C-2.3128125 29.7003125 -2.3128125 29.7003125 -9.3828125 29.1953125 C-10.0428125 31.1753125 -10.7028125 33.1553125 -11.3828125 35.1953125 C-11.7128125 35.8553125 -12.0428125 36.5153125 -12.3828125 37.1953125 C-15.3528125 37.1953125 -18.3228125 37.1953125 -21.3828125 37.1953125 C-19.98890027 32.64175059 -18.16210045 28.56387113 -15.9765625 24.3359375 C-15.65119507 23.70548523 -15.32582764 23.07503296 -14.99060059 22.42547607 C-14.30688932 21.1033528 -13.62102459 19.78234111 -12.93310547 18.46240234 C-11.88020915 16.44031277 -10.83616682 14.41382557 -9.79296875 12.38671875 C-9.1255218 11.09868781 -8.45757072 9.81091795 -7.7890625 8.5234375 C-7.18384766 7.3571582 -6.57863281 6.19087891 -5.95507812 4.98925781 C-3.29962083 0.27046072 -3.29962083 0.27046072 0 0 Z" fill="#FAFBFD" transform="translate(528.3828125,162.8046875)"/>
<path d="M0 0 C1.98056383 1.23279993 3.37059047 2.27433441 4.7890625 4.12890625 C5.2265625 7.94140625 5.2265625 7.94140625 4.7890625 11.12890625 C2.4790625 11.12890625 0.1690625 11.12890625 -2.2109375 11.12890625 C-2.8709375 9.80890625 -3.5309375 8.48890625 -4.2109375 7.12890625 C-8.2210309 6.95025994 -8.2210309 6.95025994 -12.2109375 7.12890625 C-14.349486 9.26745475 -14.63748813 10.26165939 -15.2109375 13.12890625 C-14.34210938 13.28746094 -13.47328125 13.44601563 -12.578125 13.609375 C-0.09351605 16.13701954 -0.09351605 16.13701954 3.7890625 21.12890625 C4.68484677 26.25930709 4.48093444 28.01771799 1.7265625 32.44140625 C-3.44742004 37.17504985 -8.27150764 38.63481429 -15.140625 38.34375 C-19.77019201 37.86332323 -21.71607165 36.6237721 -25.0234375 33.31640625 C-27.23549618 30.09312075 -27.76662294 28.90756726 -27.2109375 25.12890625 C-24.2409375 25.12890625 -21.2709375 25.12890625 -18.2109375 25.12890625 C-17.5509375 26.77890625 -16.8909375 28.42890625 -16.2109375 30.12890625 C-14.9528125 30.17015625 -13.6946875 30.21140625 -12.3984375 30.25390625 C-11.69074219 30.27710938 -10.98304688 30.3003125 -10.25390625 30.32421875 C-7.89734031 30.26145087 -7.89734031 30.26145087 -5.2109375 28.12890625 C-5.5409375 26.80890625 -5.8709375 25.48890625 -6.2109375 24.12890625 C-7.2009375 23.88140625 -8.1909375 23.63390625 -9.2109375 23.37890625 C-14.7375825 21.7918249 -19.95941185 20.00619472 -23.2109375 15.12890625 C-23.55499908 11.95991805 -23.19610209 9.15661104 -22.2109375 6.12890625 C-16.74494201 -0.62320583 -8.25928291 -3.2540991 0 0 Z" fill="#F7FAFC" transform="translate(462.2109375,162.87109375)"/>
<path d="M0 0 C8.58 0 17.16 0 26 0 C26 1.98 26 3.96 26 6 C19.73 6.33 13.46 6.66 7 7 C6.67 9.64 6.34 12.28 6 15 C11.28 15 16.56 15 22 15 C22 17.31 22 19.62 22 22 C16.06 22 10.12 22 4 22 C3.67 24.97 3.34 27.94 3 31 C8.94 31 14.88 31 21 31 C21 32.98 21 34.96 21 37 C12.09 37 3.18 37 -6 37 C-3 11.42857143 -3 11.42857143 0 0 Z" fill="#F9FBFD" transform="translate(600,163)"/>
<path d="M0 0 C3.37996165 1.82661757 6.16976904 3.78485059 7.8984375 7.2421875 C8.0859375 10.4921875 8.0859375 10.4921875 7.8984375 13.2421875 C5.2584375 13.2421875 2.6184375 13.2421875 -0.1015625 13.2421875 C-0.3903125 12.4378125 -0.6790625 11.6334375 -0.9765625 10.8046875 C-1.83418818 8.1095407 -1.83418818 8.1095407 -4.1015625 7.2421875 C-7.25826367 6.72830591 -9.2852447 6.71574582 -12.015625 8.4765625 C-15.93303038 11.71992191 -15.93303038 11.71992191 -18.1015625 16.2421875 C-18.24484634 18.07181186 -18.32196593 19.90719987 -18.3515625 21.7421875 C-18.37734375 22.70125 -18.403125 23.6603125 -18.4296875 24.6484375 C-18.30615321 27.25164675 -18.30615321 27.25164675 -16.828125 29.05078125 C-14.37517989 30.74342437 -12.00169788 30.82582756 -9.078125 30.74609375 C-6.68852093 30.34256881 -6.68852093 30.34256881 -4.6015625 27.2421875 C-2.1015625 24.2421875 -2.1015625 24.2421875 -0.01953125 23.84375 C2.2109375 23.8671875 2.2109375 23.8671875 5.8984375 24.2421875 C4.62596888 30.18037439 1.68327965 32.87817184 -3.1015625 36.2421875 C-7.23529117 38.57403444 -11.44074829 38.82020186 -16.1015625 38.2421875 C-20.11728984 36.82487197 -23.53582564 34.79005645 -26.18359375 31.37109375 C-28.6220567 25.715935 -28.00324929 18.60494881 -26.4375 12.765625 C-21.90570696 2.55923893 -10.95304165 -3.94960981 0 0 Z" fill="#F8FBFC" transform="translate(579.1015625,162.7578125)"/>
<path d="M0 0 C2.0078125 0.23046875 2.0078125 0.23046875 5.0078125 2.23046875 C5.66860274 8.28771264 5.66860274 8.28771264 3.80859375 10.94140625 C1.37784251 12.6814234 -0.22290995 12.53316788 -3.1796875 12.41796875 C-4.08074219 12.39089844 -4.98179687 12.36382812 -5.91015625 12.3359375 C-6.59722656 12.30113281 -7.28429687 12.26632813 -7.9921875 12.23046875 C-7.85181229 10.41753786 -7.70473861 8.60512445 -7.5546875 6.79296875 C-7.47347656 5.78363281 -7.39226562 4.77429688 -7.30859375 3.734375 C-6.71175158 -0.98878339 -4.2768996 0.08680055 0 0 Z" fill="#A1C5DF" transform="translate(493.9921875,168.76953125)"/>
<path d="M0 0 C2.77042109 2.77042109 2.39796106 4.76533805 2.625 8.625 C2.69976563 9.81351563 2.77453125 11.00203125 2.8515625 12.2265625 C2.92503906 13.59941406 2.92503906 13.59941406 3 15 C0.03 15 -2.94 15 -6 15 C-4.32819664 9.74576086 -2.62305301 4.87138415 0 0 Z" fill="#A8C9E1" transform="translate(529,171)"/>
</svg>
