<svg version="1.1" xmlns="http://www.w3.org/2000/svg" width="800" height="253">
<path d="M0 0 C0.99501022 -0.01606293 1.99002045 -0.03212585 3.0151825 -0.04867554 C7.570498 -0.09327169 12.12566934 -0.13420179 16.68115234 -0.15722656 C19.07968868 -0.17376707 21.4781761 -0.20103156 23.87646484 -0.23925781 C27.34213734 -0.29418888 30.8066551 -0.31592777 34.27270508 -0.33056641 C35.33756638 -0.35323578 36.40242767 -0.37590515 37.4995575 -0.39926147 C45.38225919 -0.37703489 50.16072541 1.48080322 55.88725281 6.87055969 C62.19634637 13.35419798 63.45647708 21.02666737 63.3684082 29.80419922 C63.34327148 30.77808594 63.31813477 31.75197266 63.29223633 32.75537109 C63.27193359 34.2684082 63.27193359 34.2684082 63.2512207 35.81201172 C63.21623209 38.2728773 63.16714791 40.73257444 63.10473633 43.19287109 C64.62260742 43.33015625 64.62260742 43.33015625 66.17114258 43.47021484 C70.31916006 44.23226374 73.46364578 45.63387439 77.04223633 47.75537109 C77.65268799 48.11324707 78.26313965 48.47112305 78.89208984 48.83984375 C91.89029293 56.72476408 99.59248775 68.8820576 104.10473633 83.19287109 C104.91723633 86.75537109 104.91723633 86.75537109 105.10473633 90.19287109 C105.16661133 91.03720703 105.22848633 91.88154297 105.29223633 92.75146484 C105.94493281 108.11022886 100.65598263 120.86779607 90.85473633 132.38037109 C80.06343584 143.87427712 65.89325583 150.76501427 50.07299805 151.39770508 C46.20304913 151.50178481 42.33504966 151.51915736 38.46386719 151.50854492 C36.0435731 151.50537285 33.62449058 151.52895619 31.2043457 151.55419922 C20.04690637 151.60135303 11.31426045 151.07809736 2.89770508 143.16552734 C-2.0894416 137.67857947 -5.03427102 132.35320149 -4.99291992 124.86865234 C-4.98969727 123.840625 -4.98647461 122.81259766 -4.9831543 121.75341797 C-4.97058594 120.14563477 -4.97058594 120.14563477 -4.95776367 118.50537109 C-4.95325195 117.42191406 -4.94874023 116.33845703 -4.9440918 115.22216797 C-4.9323011 112.54568024 -4.91584431 109.86930333 -4.89526367 107.19287109 C-5.89541504 106.90935791 -5.89541504 106.90935791 -6.91577148 106.62011719 C-15.79202021 104.04319387 -15.79202021 104.04319387 -19.64526367 101.81787109 C-20.6584668 101.24939453 -20.6584668 101.24939453 -21.69213867 100.66943359 C-32.52564366 93.40868025 -42.81464927 81.39702911 -45.56420898 68.4296875 C-46.27325487 63.63892174 -46.3973721 58.84188382 -46.45776367 54.00537109 C-46.47282959 53.00779785 -46.48789551 52.01022461 -46.50341797 50.98242188 C-46.32531884 38.36550478 -40.92987572 26.20788212 -32.55151367 16.75537109 C-23.88714598 8.58143931 -12.34572093 0.18140744 0 0 Z" fill="#EE8680" transform="translate(58.895263671875,12.80712890625)"/>
<path d="M0 0 C0.88349717 -0.0055344 1.76699434 -0.01106879 2.67726415 -0.0167709 C5.63770357 -0.03038416 8.59730093 -0.01540448 11.557724 -0.00050354 C13.68002684 -0.00428644 15.80232721 -0.00978623 17.92462158 -0.01687622 C23.68897782 -0.03085098 29.45303626 -0.01964709 35.21737599 -0.00316501 C41.2453328 0.01067175 47.27327207 0.00422705 53.30123901 0.0007019 C63.42356677 -0.00200109 73.545776 0.01148387 83.66807556 0.03465271 C95.37824724 0.06127012 107.08822082 0.06300756 118.79841238 0.05126435 C130.05540702 0.0404936 141.31232984 0.04666766 152.56931877 0.06081963 C157.36390819 0.0665848 162.15844515 0.06649258 166.95303535 0.06175423 C172.59603422 0.05698973 178.23881553 0.06706436 183.88177299 0.08870888 C185.95545086 0.09428383 188.0291496 0.09473558 190.10282898 0.08975601 C192.9280895 0.08382135 195.75268074 0.09627334 198.57788086 0.11352539 C199.40326373 0.10751535 200.22864659 0.1015053 201.07904106 0.09531313 C204.37608104 0.1320582 206.80182718 0.27382542 209.73546505 1.84846401 C212.70951231 5.14738037 211.67759875 9.75118905 211.53599548 13.94163513 C211.08549092 21.63613471 210.01727224 29.25651254 208.88169861 36.87522888 C208.47129145 39.65435619 208.08991213 42.43653796 207.70982361 45.21995544 C207.45113813 47.00406148 207.19078304 48.78792642 206.92857361 50.57151794 C206.81797607 51.39548065 206.70737854 52.21944336 206.59342957 53.06837463 C206.47360718 53.84043243 206.35378479 54.61249023 206.23033142 55.40794373 C206.08377106 56.41596542 206.08377106 56.41596542 205.93424988 57.4443512 C204.86060478 60.55993742 203.62032584 62.20122531 201.22544861 64.50120544 C198.09154821 64.99525943 195.50174317 65.16478237 192.36787415 65.11593628 C191.01116669 65.12446116 191.01116669 65.12446116 189.627051 65.13315827 C186.58956112 65.1461003 183.55339356 65.12323752 180.51597595 65.10057068 C178.34131592 65.102434 176.16665681 65.10646903 173.99200439 65.11251831 C168.0809561 65.12251292 162.17038547 65.10129084 156.25940657 65.07403827 C150.08237576 65.05025387 143.90535518 65.05315358 137.72828674 65.05273438 C127.35616438 65.04810307 116.98422533 65.02443722 106.61216736 64.98826599 C94.60604611 64.94650869 82.60012502 64.92895004 70.59393156 64.92564625 C57.83021562 64.92205178 45.06655944 64.90318473 32.30286837 64.87852597 C28.61622754 64.87228623 24.92959126 64.86865695 21.24294662 64.86549187 C15.45964471 64.85960754 9.67646175 64.84333991 3.89320946 64.81888771 C1.76547985 64.81142345 -0.36226475 64.80737423 -2.4900074 64.80690765 C-5.38377721 64.8056575 -8.2772292 64.79217203 -11.17094421 64.77536011 C-12.02228963 64.77777519 -12.87363504 64.78019028 -13.75077879 64.78267854 C-19.54616451 64.72959233 -19.54616451 64.72959233 -21.77455139 62.50120544 C-22.59010254 56.29433108 -21.43525987 49.82420911 -20.53236389 43.68089294 C-20.40393097 42.7779953 -20.27549805 41.87509766 -20.14317322 40.94483948 C-19.8721453 39.05026607 -19.59802503 37.15613266 -19.32093811 35.26243591 C-18.89986178 32.37833144 -18.49080939 29.49270162 -18.08314514 26.60667419 C-17.81693133 24.75631102 -17.5500277 22.90604693 -17.28236389 21.05589294 C-17.16144379 20.2015567 -17.04052368 19.34722046 -16.91593933 18.46699524 C-15.05253864 5.86616452 -15.05253864 5.86616452 -11.7468195 2.33547878 C-7.72068755 -0.14916467 -4.64173479 -0.0541624 0 0 Z" fill="#9EC3DD" transform="translate(435.77455139160156,149.49879455566406)"/>
<path d="M0 0 C0.99501022 -0.01606293 1.99002045 -0.03212585 3.0151825 -0.04867554 C7.570498 -0.09327169 12.12566934 -0.13420179 16.68115234 -0.15722656 C19.07968868 -0.17376707 21.4781761 -0.20103156 23.87646484 -0.23925781 C27.34213734 -0.29418888 30.8066551 -0.31592777 34.27270508 -0.33056641 C35.33756638 -0.35323578 36.40242767 -0.37590515 37.4995575 -0.39926147 C45.38220281 -0.37703505 50.16091407 1.48071071 55.88725281 6.87068176 C62.08139754 13.2356969 63.45928431 20.81550007 63.3684082 29.44873047 C63.34327148 30.37492187 63.31813477 31.30111328 63.29223633 32.25537109 C63.27193359 33.69686523 63.27193359 33.69686523 63.2512207 35.16748047 C63.21625939 37.50988861 63.16719737 39.85106265 63.10473633 42.19287109 C58.36534811 43.41870956 53.78282657 43.28583074 48.92895508 43.22021484 C47.1132018 43.20756544 45.29744648 43.19520471 43.48168945 43.18310547 C40.63795547 43.15834324 37.79432888 43.13039572 34.95068359 43.09692383 C32.19343422 43.06652971 29.4363196 43.04888721 26.67895508 43.03271484 C25.83910568 43.01925522 24.99925629 43.00579559 24.13395691 42.9919281 C17.16741359 42.96265563 10.25461455 43.43982984 4.85473633 48.31787109 C4.23083008 48.85669922 3.60692383 49.39552734 2.96411133 49.95068359 C-2.54261381 56.59114626 -3.49411161 62.80058616 -3.50463867 71.25537109 C-3.52117493 72.28726563 -3.53771118 73.31916016 -3.55474854 74.38232422 C-3.60302628 77.65256829 -3.62455501 80.92234799 -3.64526367 84.19287109 C-3.67344018 86.42075878 -3.70336995 88.64862504 -3.73510742 90.87646484 C-3.80877955 96.31518319 -3.8605403 101.75377203 -3.89526367 107.19287109 C-5.3320446 106.89120142 -6.76780661 106.58467636 -8.203125 106.27612305 C-9.00277176 106.10595169 -9.80241852 105.93578033 -10.626297 105.76045227 C-13.54641448 105.02998596 -15.96844098 103.86142984 -18.58276367 102.38037109 C-19.88793945 101.65914062 -19.88793945 101.65914062 -21.21948242 100.92333984 C-32.03956246 93.92582823 -41.31637062 82.73292609 -45.15307617 70.36865234 C-46.29710325 64.97324673 -46.38911905 59.50283702 -46.45776367 54.00537109 C-46.47282959 53.00779785 -46.48789551 52.01022461 -46.50341797 50.98242188 C-46.32531884 38.36550478 -40.92987572 26.20788212 -32.55151367 16.75537109 C-23.88714598 8.58143931 -12.34572093 0.18140744 0 0 Z" fill="#9DC2DD" transform="translate(58.895263671875,12.80712890625)"/>
<path d="M0 0 C0.99 0 1.98 0 3 0 C7.46745171 8.82259319 11.82925487 17.68743092 16.0625 26.625 C18.79975488 32.40410731 21.55567573 38.166506 24.4375 43.875 C28.10441193 51.13897793 31.59900682 58.48332569 35.09350586 65.83154297 C35.54089111 66.77143066 35.98827637 67.71131836 36.44921875 68.6796875 C37.09383057 70.0404541 37.09383057 70.0404541 37.75146484 71.42871094 C38.89266382 73.77894708 40.10375562 76.07743363 41.33203125 78.3828125 C43 82 43 82 43 87 C36.07 87 29.14 87 22 87 C20 83 18 79 16 75 C5.77 75 -4.46 75 -15 75 C-15.99 78.63 -16.98 82.26 -18 86 C-19.66099774 87.66099774 -21.66208259 87.11958781 -23.8800211 87.12442875 C-24.57905017 87.12083064 -25.27807924 87.11723253 -25.99829102 87.11352539 C-26.74182548 87.11364593 -27.48535994 87.11376646 -28.25142574 87.11389065 C-30.66894921 87.11314159 -33.0863965 87.10551371 -35.50390625 87.09765625 C-36.99214643 87.09618681 -38.48038713 87.09516611 -39.96862793 87.09460449 C-45.49992648 87.08935187 -51.03121398 87.07539078 -56.5625 87.0625 C-68.916875 87.041875 -81.27125 87.02125 -94 87 C-94 59.28 -94 31.56 -94 3 C-86.74 3 -79.48 3 -72 3 C-72 23.79 -72 44.58 -72 66 C-56.16 66.495 -56.16 66.495 -40 67 C-39.505 74.425 -39.505 74.425 -39 82 C-30.29882821 64.29262658 -30.29882821 64.29262658 -22.1875 46.3125 C-19.74001136 40.57237895 -17.04215154 35.00683379 -14.20556641 29.45214844 C-10.65413975 22.43855283 -7.44458629 15.27318707 -4.23706055 8.09716797 C-3.83011963 7.1898291 -3.42317871 6.28249023 -3.00390625 5.34765625 C-2.64111572 4.53304932 -2.2783252 3.71844238 -1.90454102 2.87915039 C-1 1 -1 1 0 0 Z M2 36 C-0.97 43.26 -3.94 50.52 -7 58 C-1.06 58 4.88 58 11 58 C8.87460394 50.39331935 6.14771471 43.24098798 3 36 C2.67 36 2.34 36 2 36 Z" fill="#706F70" transform="translate(604,42)"/>
<path d="M0 0 C10.2516415 7.2968382 18.27241978 17.56628138 21 30 C21.90733383 40.37364158 21.90512661 50.60788871 17 60 C16.63777344 60.7115625 16.27554688 61.423125 15.90234375 62.15625 C10.3358819 71.96831834 1.37118333 79.419202 -9.2578125 83.140625 C-20.89212731 85.81238832 -32.85926757 85.08216503 -43.05859375 78.71484375 C-45.15548665 77.24742747 -47.07068958 75.68157795 -49 74 C-49.76570313 73.34 -50.53140625 72.68 -51.3203125 72 C-57.80240013 66.00995203 -63.43995727 57.91517584 -64.17700195 48.81445312 C-64.58561261 31.92304217 -63.55413083 20.19592562 -52 7 C-37.90262001 -6.69096903 -17.25626623 -8.9724238 0 0 Z M-36.6875 21.75 C-42.49847616 29.91677731 -43.10600468 37.01465588 -42 47 C-40.00331573 53.59588437 -36.74811898 58.24612638 -31 62 C-25.18419941 64.9079003 -19.09390382 64.26275619 -13.01171875 62.38671875 C-7.34465238 59.73538615 -4.6119106 54.46923561 -2 49 C0.5010946 41.26934395 -0.57053273 33.43354491 -3.8671875 26.16015625 C-6.60828976 20.9331578 -9.33695961 17.88768013 -15 16 C-23.75423307 15.18591208 -30.30436722 15.21842227 -36.6875 21.75 Z" fill="#706F70" transform="translate(393,47)"/>
<path d="M0 0 C1.2684375 0.99 1.2684375 0.99 2.5625 2 C3.3565625 2.59941406 4.150625 3.19882812 4.96875 3.81640625 C13.56329519 11.05187427 18.49160177 20.90738382 19.79736328 31.99414062 C20.77428425 43.60834317 19.37329784 55.21992229 12.47265625 64.9453125 C10.28022344 67.45630392 8.01390838 69.74334945 5.5625 72 C4.95019531 72.59425781 4.33789062 73.18851562 3.70703125 73.80078125 C-6.36762595 83.09159785 -17.09176291 83.69534225 -30.203125 83.17480469 C-41.66321217 82.27823318 -50.59349395 73.59038382 -57.71484375 65.265625 C-64.93771775 55.76615352 -67.51510318 44.01101898 -65.93359375 32.25390625 C-63.15822057 18.52234786 -56.16527682 7.01601388 -44.4375 -1 C-29.86135392 -8.42320418 -14.150685 -8.23312582 0 0 Z M-37.89453125 20.61328125 C-43.53979445 27.95049653 -44.59229409 35.94559674 -43.4375 45 C-41.35850738 51.31836191 -38.40330431 57.73411006 -32.484375 61.23046875 C-26.87477448 63.33942162 -20.8769926 63.76306287 -15.125 62 C-9.31729608 59.35797076 -5.84405795 54.6596555 -3.5625 48.8125 C-1.19197719 40.46598856 -1.52096317 32.12314953 -5.09375 24.19921875 C-7.8473188 19.69265121 -11.44441773 16.66436076 -16.4375 15 C-24.91937591 14.30081834 -31.86331484 13.93528561 -37.89453125 20.61328125 Z" fill="#706F70" transform="translate(482.4375,48)"/>
<path d="M0 0 C1.33809219 -0.00143509 1.33809219 -0.00143509 2.70321655 -0.00289917 C4.58079092 -0.00357715 6.45836768 -0.0017496 8.3359375 0.00244141 C11.20838673 0.00780773 14.08068051 0.00247696 16.953125 -0.00390625 C18.78125034 -0.00324565 20.60937559 -0.00196486 22.4375 0 C23.72353622 -0.00303635 23.72353622 -0.00303635 25.03555298 -0.00613403 C25.83673553 -0.00298187 26.63791809 0.00017029 27.46337891 0.00341797 C28.16475983 0.00421356 28.86614075 0.00500916 29.58877563 0.00582886 C31.69076633 0.13947773 33.56252799 0.56154566 35.5859375 1.1328125 C35.68531926 7.37666254 35.75764825 13.62004522 35.80566406 19.86450195 C35.82569496 21.98567737 35.85292775 24.10679815 35.88769531 26.2277832 C35.93658964 29.28871191 35.95899202 32.34890626 35.9765625 35.41015625 C35.99720764 36.34802475 36.01785278 37.28589325 36.03912354 38.25218201 C36.04172122 45.99264632 33.95825827 52.20641493 29.3359375 58.4453125 C24.49546929 63.17577007 18.29937996 66.2547192 11.45336914 66.26220703 C10.21176781 66.26693527 10.21176781 66.26693527 8.94508362 66.27175903 C8.05441696 66.2697348 7.16375031 66.26771057 6.24609375 66.265625 C5.3275914 66.26658173 4.40908905 66.26753845 3.4627533 66.26852417 C1.52017142 66.26920467 -0.42241273 66.26735945 -2.36499023 66.26318359 C-5.33647789 66.25783963 -8.30781397 66.26312985 -11.27929688 66.26953125 C-13.166667 66.26887033 -15.05403703 66.26758887 -16.94140625 66.265625 C-17.83004868 66.26764923 -18.7186911 66.26967346 -19.63426208 66.27175903 C-20.88059166 66.26703079 -20.88059166 66.26703079 -22.15209961 66.26220703 C-22.88029404 66.26141144 -23.60848846 66.26061584 -24.35874939 66.25979614 C-26.48481013 66.12844149 -28.36861982 65.71320225 -30.4140625 65.1328125 C-30.51589601 58.58591064 -30.5857092 52.03921479 -30.63378906 45.49169922 C-30.65384296 43.26668668 -30.68109315 41.04172643 -30.71582031 38.81689453 C-30.76461184 35.60956885 -30.78709412 32.40294299 -30.8046875 29.1953125 C-30.82533264 28.20853516 -30.84597778 27.22175781 -30.86724854 26.20507812 C-30.86962379 18.81201446 -29.23816361 13.6877117 -24.6328125 7.890625 C-24.065625 7.35179687 -23.4984375 6.81296875 -22.9140625 6.2578125 C-22.346875 5.70351563 -21.7796875 5.14921875 -21.1953125 4.578125 C-15.01518238 -0.43645426 -7.57957836 -0.01798038 0 0 Z" fill="#376189" transform="translate(85.4140625,54.8671875)"/>
<path d="M0 0 C-0.87705569 4.36582763 -3.24311826 7.17456378 -6 10.5625 C-6.4940332 11.18020264 -6.98806641 11.79790527 -7.49707031 12.43432617 C-11.26947383 17.13891365 -15.09808166 21.79811037 -18.921875 26.4609375 C-19.60765625 27.29882812 -20.2934375 28.13671875 -21 29 C-21.68578125 29.83789062 -22.3715625 30.67578125 -23.078125 31.5390625 C-24.02945313 32.72628906 -24.02945313 32.72628906 -25 33.9375 C-25.8353125 34.97197266 -25.8353125 34.97197266 -26.6875 36.02734375 C-28.54489025 38.78614522 -28.54489025 38.78614522 -29 42 C-27.2089168 44.74021178 -27.2089168 44.74021178 -24.625 47.5 C-23.68760491 48.57203852 -22.75276537 49.64631625 -21.8203125 50.72265625 C-21.1072998 51.54080811 -21.1072998 51.54080811 -20.37988281 52.37548828 C-17.51229893 55.75144425 -14.93467539 59.34890931 -12.3046875 62.91015625 C-10.66582632 65.10734132 -9.0117285 67.27785561 -7.3203125 69.43359375 C-6.87107422 70.00795166 -6.42183594 70.58230957 -5.95898438 71.17407227 C-4.69735632 72.78274039 -3.43085527 74.38758332 -2.1640625 75.9921875 C-0.07612664 78.89419222 1.50134439 81.76097014 3 85 C-18.82051523 86.76989999 -18.82051523 86.76989999 -25.13671875 83.25390625 C-26.97437076 80.93969222 -28.43640987 78.61977799 -29.82226562 76.01367188 C-32.42155779 71.56944265 -35.75329813 67.58453828 -38.875 63.5 C-40.7277884 61.00262501 -42.57809601 58.50346616 -44.42529297 56.00195312 C-46.13699109 53.74439823 -46.13699109 53.74439823 -49 51 C-49.33 62.22 -49.66 73.44 -50 85 C-56.93 85 -63.86 85 -71 85 C-72.53401292 81.93197416 -72.13849549 78.71919946 -72.12939453 75.35327148 C-72.13114685 74.56454651 -72.13289917 73.77582153 -72.13470459 72.9631958 C-72.13911559 70.34913958 -72.13618803 67.73515069 -72.1328125 65.12109375 C-72.13348569 63.31030769 -72.13445584 61.49952171 -72.13571167 59.68873596 C-72.13718757 55.89152161 -72.13503729 52.09433076 -72.13037109 48.29711914 C-72.12466981 43.41865135 -72.12795602 38.54023851 -72.13394356 33.66177273 C-72.13754862 29.92242515 -72.13641091 26.18309071 -72.13381577 22.44374275 C-72.13314655 20.6443182 -72.13397472 18.84489247 -72.13629532 17.04546928 C-72.13882138 14.53605846 -72.13498212 12.02673803 -72.12939453 9.51733398 C-72.13141876 8.76666153 -72.13344299 8.01598907 -72.13552856 7.24256897 C-72.11426347 2.11426347 -72.11426347 2.11426347 -71 1 C-69.43827255 0.91314397 -67.87270656 0.89297781 -66.30859375 0.90234375 C-65.45837646 0.90484131 -64.60815918 0.90733887 -63.73217773 0.90991211 C-62.10131226 0.92356812 -62.10131226 0.92356812 -60.4375 0.9375 C-56.993125 0.958125 -53.54875 0.97875 -50 1 C-49.505 16.345 -49.505 16.345 -49 32 C-42.89209036 24.40466756 -42.89209036 24.40466756 -36.97265625 16.68359375 C-36.32619141 15.81798828 -35.67972656 14.95238281 -35.01367188 14.06054688 C-34.36978516 13.19494141 -33.72589844 12.32933594 -33.0625 11.4375 C-31.74157689 9.66484911 -30.41999923 7.89268571 -29.09765625 6.12109375 C-28.52539307 5.3520874 -27.95312988 4.58308105 -27.36352539 3.79077148 C-26 2 -26 2 -25 1 C-23.3178627 0.84251614 -21.62963131 0.74903998 -19.94140625 0.68359375 C-18.40323242 0.62075195 -18.40323242 0.62075195 -16.83398438 0.55664062 C-15.75439453 0.51732422 -14.67480469 0.47800781 -13.5625 0.4375 C-11.94891602 0.37272461 -11.94891602 0.37272461 -10.30273438 0.30664062 C-2.54910714 0 -2.54910714 0 0 0 Z" fill="#706F70" transform="translate(334,44)"/>
<path d="M0 0 C0 6.93 0 13.86 0 21 C-3.81567602 19.72810799 -7.1485595 18.50652506 -10.75 16.875 C-15.87088865 14.78784993 -20.51786922 14.35690389 -26 15 C-26.66 15.33 -27.32 15.66 -28 16 C-28.7555432 18.7412565 -28.7555432 18.7412565 -28 22 C-24.45448947 25.40808764 -19.84896161 27.53640322 -15.56640625 29.875 C2.43454636 39.74932079 2.43454636 39.74932079 5.59375 48.83203125 C7.18481343 57.32280245 6.95939661 65.33653521 2.54296875 72.8828125 C-1.95314986 79.05217019 -7.8078938 82.60357215 -15 85 C-18.31588991 85.50325704 -21.52702902 85.52638705 -24.875 85.4375 C-25.74688965 85.42501221 -26.6187793 85.41252441 -27.51708984 85.3996582 C-33.81038541 85.22806546 -40.27649441 84.86175279 -46 82 C-50.487145 75.26928251 -49.15723249 64.89656484 -49 57 C-48.154375 57.40992188 -47.30875 57.81984375 -46.4375 58.2421875 C-36.818436 62.8112429 -28.7887589 66.48662845 -18 64 C-15.719279 62.12575284 -15.719279 62.12575284 -15.625 59.125 C-16.1034886 55.13759501 -16.95120972 54.57610962 -20 52 C-22.83935145 50.17279732 -25.76480078 48.50201295 -28.6875 46.8125 C-46.7378573 36.04071619 -46.7378573 36.04071619 -49.6328125 26.02734375 C-51.00080331 18.47428813 -49.99019599 12.60876211 -46 6 C-35.27984895 -9.07521241 -14.93329131 -4.97776377 0 0 Z" fill="#706F70" transform="translate(248,46)"/>
<path d="M0 0 C3.39554235 -0.11660824 6.79056679 -0.18738372 10.1875 -0.25 C11.14720703 -0.28351563 12.10691406 -0.31703125 13.09570312 -0.3515625 C20.25784723 -0.45069252 20.25784723 -0.45069252 24.11328125 1.890625 C27.25364084 5.40158603 27.40277968 8.03110251 27.34375 12.61328125 C26.59787748 17.79200978 23.4765689 20.88356986 19.4375 23.9375 C14.31299929 25.52143658 9.32088498 25.23246585 4 25 C3.93941406 25.85464844 3.87882812 26.70929688 3.81640625 27.58984375 C3.73261719 28.69457031 3.64882813 29.79929688 3.5625 30.9375 C3.48128906 32.03964844 3.40007812 33.14179688 3.31640625 34.27734375 C3 37 3 37 2 38 C-0.33297433 38.04092937 -2.66705225 38.04241723 -5 38 C-4.35150953 29.54147566 -3.21658242 21.19659145 -1.9375 12.8125 C-1.75123047 11.57435547 -1.56496094 10.33621094 -1.37304688 9.06054688 C-0.91820399 6.03992362 -0.46046929 3.01976976 0 0 Z" fill="#F9FBFD" transform="translate(480,164)"/>
<path d="M0 0 C3.63 0 7.26 0 11 0 C11.18175781 1.07636719 11.36351562 2.15273437 11.55078125 3.26171875 C12.75191707 10.26874718 13.99446392 17.21580037 15.6875 24.125 C16.76008411 28.57734135 17.31845095 32.43553634 17 37 C14.36 37 11.72 37 9 37 C8.67 34.36 8.34 31.72 8 29 C3.38 29.33 -1.24 29.66 -6 30 C-6.99 32.64 -7.98 35.28 -9 38 C-11.97 38 -14.94 38 -18 38 C-17.38886513 33.28267792 -15.37075838 29.4444759 -13.18359375 25.29296875 C-12.80767593 24.56757401 -12.43175812 23.84217926 -12.04444885 23.09480286 C-10.84796736 20.78927894 -9.64288326 18.4883802 -8.4375 16.1875 C-7.62247424 14.62074046 -6.80801469 13.05368624 -5.99414062 11.48632812 C-4.00263636 7.65410761 -2.00340711 3.82601045 0 0 Z" fill="#F9FBFD" transform="translate(525,164)"/>
<path d="M0 0 C8.91 0 17.82 0 27 0 C27 1.98 27 3.96 27 6 C26 7 26 7 24.14233398 7.11352539 C23.35157471 7.10828857 22.56081543 7.10305176 21.74609375 7.09765625 C20.89208984 7.09443359 20.03808594 7.09121094 19.15820312 7.08789062 C18.26037109 7.07951172 17.36253906 7.07113281 16.4375 7.0625 C15.53580078 7.05798828 14.63410156 7.05347656 13.70507812 7.04882812 C11.46998686 7.03700225 9.23502563 7.0205222 7 7 C7 9.64 7 12.28 7 15 C12.28 15 17.56 15 23 15 C23 16.98 23 18.96 23 21 C22 22 22 22 18.18359375 22.09765625 C16.60153318 22.09098089 15.01948841 22.07901875 13.4375 22.0625 C12.63119141 22.05798828 11.82488281 22.05347656 10.99414062 22.04882812 C8.99606244 22.03700518 6.99802217 22.01906914 5 22 C4.67 24.97 4.34 27.94 4 31 C9.94 31 15.88 31 22 31 C22 32.98 22 34.96 22 37 C21 38 21 38 18.49975586 38.11352539 C17.41573486 38.10828857 16.33171387 38.10305176 15.21484375 38.09765625 C13.46010742 38.09282227 13.46010742 38.09282227 11.66992188 38.08789062 C9.82237305 38.07532227 9.82237305 38.07532227 7.9375 38.0625 C6.08415039 38.05573242 6.08415039 38.05573242 4.19335938 38.04882812 C1.12885883 38.03699608 -1.93554721 38.02051173 -5 38 C-3.69278448 25.26618291 -1.95999228 12.65085925 0 0 Z" fill="#F6FAFC" transform="translate(599,164)"/>
<path d="M0 0 C3.17633717 1.27493118 3.89109311 2.14677303 6 5 C6.375 8.3125 6.375 8.3125 6 11 C3.69 11 1.38 11 -1 11 C-1 10.01 -1 9.02 -1 8 C-4.52059568 6.82646811 -7.306493 6.79853598 -11 7 C-11.66 7.66 -12.32 8.32 -13 9 C-13 10.32 -13 11.64 -13 13 C-12.27554687 13.15855469 -11.55109375 13.31710938 -10.8046875 13.48046875 C0.06085674 16.10268676 0.06085674 16.10268676 4 21 C4.97188135 24.86608683 4.92127818 28.29473215 3.00390625 31.84375 C0.71818187 34.74896977 -1.58987689 36.66507636 -5 38 C-11.42206079 38.68871683 -17.56068265 38.86477812 -23 35 C-25.4294516 31.3558226 -25.16179575 29.28758728 -25 25 C-22.69 25 -20.38 25 -18 25 C-17.34 26.65 -16.68 28.3 -16 30 C-14.5629191 30.05422947 -13.12524538 30.09289723 -11.6875 30.125 C-10.88699219 30.14820313 -10.08648437 30.17140625 -9.26171875 30.1953125 C-6.71611424 30.15817322 -6.71611424 30.15817322 -4 28 C-4.00561387 26.02981542 -4.00561387 26.02981542 -5 24 C-7.87237511 22.77180013 -7.87237511 22.77180013 -11.3125 22 C-16.01465853 20.82051119 -18.99268622 19.92037772 -22 16 C-22.67811596 11.86349263 -22.96416596 9.53443485 -20.71875 5.9609375 C-14.8071485 -1.08082311 -8.99461612 -0.89742202 0 0 Z" fill="#F9FBFD" transform="translate(461,164)"/>
<path d="M0 0 C1.69576172 -0.03867188 1.69576172 -0.03867188 3.42578125 -0.078125 C8.20410723 0.40256887 10.70454919 2.24048295 14 5.625 C15.85127251 8.50475723 16.07019307 9.90143565 15.6875 13.25 C10.33186896 13.68898615 10.33186896 13.68898615 7.6875 13.25 C5.75 10.8125 5.75 10.8125 4.6875 8.25 C3.53609132 6.89145975 3.53609132 6.89145975 0.4375 6.875 C-3.40368217 6.91725696 -3.40368217 6.91725696 -6.0625 9.4375 C-6.805 10.365625 -7.5475 11.29375 -8.3125 12.25 C-8.910625 12.9925 -9.50875 13.735 -10.125 14.5 C-12.1644288 19.22288776 -12.18269902 24.02011502 -10.3125 28.8125 C-7.716478 30.67839081 -5.46788761 30.79933716 -2.31640625 30.6484375 C0.78361249 30.0320595 2.52526511 28.47775716 4.6875 26.25 C5.0175 25.59 5.3475 24.93 5.6875 24.25 C8.3275 24.25 10.9675 24.25 13.6875 24.25 C12.60405135 30.04963688 8.66276202 33.82597389 4 37.1875 C-2.12409061 39.15183095 -7.93732312 39.3527607 -13.8125 36.625 C-18.42828228 32.24000684 -19.49833352 28.63325774 -19.6875 22.375 C-19.48229119 15.98984902 -18.9186314 10.98936921 -14.40234375 6.2421875 C-9.44013235 1.79330832 -6.75549156 0.09180736 0 0 Z" fill="#FAFBFD" transform="translate(571.3125,163.75)"/>
<path d="M0 0 C1.4370809 -0.05422947 2.87475462 -0.09289723 4.3125 -0.125 C5.11300781 -0.14820313 5.91351563 -0.17140625 6.73828125 -0.1953125 C9 0 9 0 12 2 C12.76045884 7.97503374 12.76045884 7.97503374 10.5625 10.9375 C6.74098146 12.52203208 3.08137509 12.23546395 -1 12 C-1.13392857 3.96428571 -1.13392857 3.96428571 0 0 Z" fill="#9DC2DD" transform="translate(487,170)"/>
<path d="M0 0 C0.33 0 0.66 0 1 0 C1.33776684 1.7491497 1.67003671 3.49936145 2 5.25 C2.185625 6.22453125 2.37125 7.1990625 2.5625 8.203125 C3 11 3 11 3 15 C0.03 15 -2.94 15 -6 15 C-5.39644592 11.14974121 -4.23227397 8.13898841 -2.4375 4.6875 C-1.98246094 3.80449219 -1.52742187 2.92148438 -1.05859375 2.01171875 C-0.53458984 1.01591797 -0.53458984 1.01591797 0 0 Z" fill="#A1C5DF" transform="translate(529,172)"/>
<path d="M0 0 C2.97 0 5.94 0 9 0 C9 0.33 9 0.66 9 1 C7.6078125 1.3403125 7.6078125 1.3403125 6.1875 1.6875 C2.49280817 3.2088437 1.67517239 4.46352496 0 8 C-1.08174162 4.63458162 -0.92538169 3.70152678 0 0 Z" fill="#B2CFE5" transform="translate(487,170)"/>
</svg>
